<svg id="Layer_1" data-name="Layer 1" xmlns="http://www.w3.org/2000/svg" viewBox="0 0 40 40"><defs><style>.cls-1{fill:#00243d;}</style></defs><path class="cls-1" d="M40,28.17H27.92V10.1h-1V28.17h-3L19,8.91a1.86,1.86,0,0,0-1.8-1.39H3.66A2.43,2.43,0,0,0,1.24,9.94V30.88a1.57,1.57,0,0,0,1.57,1.57H4.29a3.83,3.83,0,0,0,7.26,0h5.88a3.83,3.83,0,1,0,6.89-3.25H40ZM10.85,31.41a2.8,2.8,0,0,1-.26,1,2.95,2.95,0,0,1-5.35,0,3.24,3.24,0,0,1-.26-1v-.19a2.94,2.94,0,0,1,5.88,0A1.15,1.15,0,0,1,10.85,31.41Zm6.39,0h-5.5a1.15,1.15,0,0,0,0-.19,3.83,3.83,0,0,0-7.66,0v.19H2.81a.53.53,0,0,1-.54-.53V9.94A1.38,1.38,0,0,1,3.66,8.56H17.15a.83.83,0,0,1,.8.61l3.29,12.88h-.19a1.42,1.42,0,0,0-1.25.72l-1,1.69-1.9-1.82,1.36-1.45-.75-.7-3.25,3.44.75.71,1.18-1.25,2.07,2L17.5,26.7a.42.42,0,0,1-.36.2H12.38a.43.43,0,0,1-.38-.23l-1.55-3.21v-.95A1.47,1.47,0,0,0,9,21H6V17.47a.74.74,0,0,0-.52-.7l-1.72-.5a.7.7,0,0,0-.64.11A.75.75,0,0,0,2.8,17v6.16a1,1,0,0,0,1,1H9.61l1.46,3a1.47,1.47,0,0,0,1.31.81h4.76a1.44,1.44,0,0,0,1.25-.71l2.3-3.93a.41.41,0,0,1,.36-.21h.45l1.2,4.68a3.76,3.76,0,0,0-1.64-.37,3.84,3.84,0,0,0-3.83,3.83A1.15,1.15,0,0,0,17.24,31.41ZM5.66,22.07H9a.44.44,0,0,1,.43.44v.55H3.83V17.37l1.11.33v3.64A.73.73,0,0,0,5.66,22.07ZM23.85,32.16a2.94,2.94,0,0,1-5.46.29,2.8,2.8,0,0,1-.26-1c0-.06,0-.12,0-.19A2.94,2.94,0,0,1,23,29a2.91,2.91,0,0,1,1,2.19A2.94,2.94,0,0,1,23.85,32.16Z"/><path class="cls-1" d="M29.6,27.74H37a.7.7,0,0,0,.7-.7v-5.9a.7.7,0,0,0-.7-.7H29.6a.7.7,0,0,0-.7.7V27A.7.7,0,0,0,29.6,27.74Zm3.24-6.33h.92v1.2h-.92Zm-3,0h2V23.1a.49.49,0,0,0,.49.48h1.89a.49.49,0,0,0,.49-.48V21.41h2v5.36H29.88Z"/></svg>