<svg id="Layer_1" data-name="Layer 1" xmlns="http://www.w3.org/2000/svg" viewBox="0 0 40 40"><defs><style>.cls-1{fill:#00243d;}.cls-2{fill:#fff;}</style></defs><path class="cls-1" d="M37.78,14.94h-7l-2.2-2.19a3.87,3.87,0,0,0-2.75-1.14H14.16a3.87,3.87,0,0,0-2.75,1.14l-2.2,2.19h-7a1.11,1.11,0,0,0-1.11,1.11v10a1.11,1.11,0,0,0,1.11,1.11H7.3a2.18,2.18,0,0,0,.58,1L15.1,35.4a2.21,2.21,0,0,0,3.11,0l0,0,1-1a3.81,3.81,0,0,0,.67-.92l1.89,1.89a2.21,2.21,0,0,0,3.11,0l0,0,7.22-7.23a2.07,2.07,0,0,0,.59-1h5.07a1.11,1.11,0,0,0,1.11-1.11v-10A1.11,1.11,0,0,0,37.78,14.94ZM8.66,27.4a1.11,1.11,0,0,1,0-1.58l1-1a2.78,2.78,0,0,1,3.55-.31l-3.7,3.69ZM10.27,29,14,25.27l1.61,1.61-3.72,3.73Zm2.4,2.39,3.72-3.73L18,29.28,14.27,33Zm5.76,2.24-1,1a1.13,1.13,0,0,1-1.58,0l-.82-.82,3.68-3.7A2.76,2.76,0,0,1,18.43,33.64ZM31.34,27.4l-.88.88-2.95-2.94-.79.79,3,2.94-1.61,1.6-2.95-2.93-.78.78,2.94,2.94-1.61,1.61-2.94-2.94-.79.79,2.95,2.94-.76.76a1.13,1.13,0,0,1-1.58,0l-2.25-2.27a5.05,5.05,0,0,0,.07-.68,3.9,3.9,0,0,0-1.15-2.74l-4.87-4.87a4,4,0,0,0-5.5,0l-1,1a2.23,2.23,0,0,0-.58,1H2.22v-10h7a1.1,1.1,0,0,0,.79-.32l2.19-2.2a2.78,2.78,0,0,1,2-.81h2.27l-3.65,3.65a1.11,1.11,0,0,0,0,1.58l.59.58a3.88,3.88,0,0,0,5.47,0l0,0,.82-.81h3.55l8.11,8.1A1.11,1.11,0,0,1,31.34,27.4Zm6.44-1.35H32.71a2.17,2.17,0,0,0-.59-1L24,16.93a1.06,1.06,0,0,0-.79-.32H19.68a1.06,1.06,0,0,0-.79.32l-.81.82a2.8,2.8,0,0,1-3.94,0l-.57-.59L18,12.72h7.83a2.78,2.78,0,0,1,2,.81L30,15.73a1.1,1.1,0,0,0,.79.32h7Z"/><polygon class="cls-2" points="24.77 11.1 24.77 13.67 31.08 18.89 37.09 16.11 39.72 16.11 38.6 14.4 24.77 11.1"/><path class="cls-1" d="M37.89,10.24a6.15,6.15,0,0,0-.73-1.82l.52-1a.67.67,0,0,0-.11-.8L36.86,6a.7.7,0,0,0-.81-.12l-.95.53a5.83,5.83,0,0,0-1.65-.69l-.32-1.46a.68.68,0,0,0-.66-.53h-1a.68.68,0,0,0-.66.53L30.5,5.68a6.07,6.07,0,0,0-1.79,11,6.07,6.07,0,0,0,9.18-6.45ZM36.57,7.61A6.85,6.85,0,0,0,35.91,7l.43-.24.47.47ZM32,16.71a5.16,5.16,0,1,1,5.16-5.16A5.16,5.16,0,0,1,32,16.71Zm-.51-11.2.2-.91h.63l.2.91-.52,0Z"/><path class="cls-1" d="M32.31,10.6V9h-.67V10.6a1,1,0,0,0-.54.44,1,1,0,0,0-.1.77,1,1,0,0,0,.46.61.94.94,0,0,0,.51.14,1.15,1.15,0,0,0,.26,0A1,1,0,0,0,33,11.3,1,1,0,0,0,32.31,10.6Zm0,1a.34.34,0,1,1-.67,0,.34.34,0,1,1,.67,0Z"/><rect class="cls-1" x="31.64" y="6.72" width="0.67" height="1.12"/><rect class="cls-1" x="27.15" y="11.21" width="1.12" height="0.67"/><rect class="cls-1" x="31.64" y="15.25" width="0.67" height="1.12"/><rect class="cls-1" x="35.68" y="11.21" width="1.12" height="0.67"/></svg>