<svg id="Layer_1" data-name="Layer 1" xmlns="http://www.w3.org/2000/svg" viewBox="0 0 40 40">
  <defs>
    <style>
      .cls-1 {
        fill: none;
        stroke: #00243d;
        stroke-miterlimit: 10;
        stroke-width: 1.3px;
      }
    </style>
  </defs>
  <g>
    <g>
      <line class="cls-1" x1="29.11" y1="16.62" x2="33.13" y2="16.62"/>
      <line class="cls-1" x1="29.11" y1="19.69" x2="33.13" y2="19.69"/>
      <line class="cls-1" x1="29.11" y1="22.75" x2="33.13" y2="22.75"/>
    </g>
    <g>
      <line class="cls-1" x1="6.82" y1="16.62" x2="10.84" y2="16.62"/>
      <line class="cls-1" x1="6.82" y1="19.69" x2="10.84" y2="19.69"/>
      <line class="cls-1" x1="6.82" y1="22.75" x2="10.84" y2="22.75"/>
    </g>
    <path class="cls-1" d="M15.48,37.29a1.21,1.21,0,0,0,1.21,1.21h6.67a1.21,1.21,0,0,0,1.21-1.21V34.86a1.21,1.21,0,0,0-1.21-1.21H16.69a1.21,1.21,0,0,0-1.21,1.21v2.43Z"/>
    <path class="cls-1" d="M6.65,27v1.16a4.18,4.18,0,0,0,.94,2.64l3,3.71a4.24,4.24,0,0,0,3.31,1.59h1.62"/>
    <path class="cls-1" d="M7.25,27H9.68a1.21,1.21,0,0,0,1.21-1.21V13.63a1.22,1.22,0,0,0-1.21-1.22H5.43a3,3,0,0,0-3,3v8.49a3,3,0,0,0,3,3H7.25Z"/>
    <path class="cls-1" d="M33.34,12.41v-3A4.16,4.16,0,0,0,32.4,6.8L29.45,3.09A4.24,4.24,0,0,0,26.14,1.5H13.86a4.24,4.24,0,0,0-3.31,1.59L7.6,6.8a4.16,4.16,0,0,0-.94,2.64v3"/>
    <path class="cls-1" d="M33.48,12.41H30.32a1.22,1.22,0,0,0-1.21,1.22V25.75A1.21,1.21,0,0,0,30.32,27h4.25a3,3,0,0,0,3-3V15.44a3,3,0,0,0-3-3H33.48Z"/>
    <path class="cls-1" d="M13.86,1.54h.08V4a1.21,1.21,0,0,0,1.21,1.21h9.7A1.21,1.21,0,0,0,26.06,4V1.54h.08"/>
  </g>
</svg>
