<?xml version="1.0" encoding="utf-8"?>
<!-- Generator: Adobe Illustrator 25.2.0, SVG Export Plug-In . SVG Version: 6.00 Build 0)  -->
<svg version="1.1" id="Layer_1" xmlns="http://www.w3.org/2000/svg" xmlns:xlink="http://www.w3.org/1999/xlink" x="0px" y="0px"
	 viewBox="0 0 40 40" style="enable-background:new 0 0 40 40;" xml:space="preserve">
<style type="text/css">
	.st0{fill:#FFFFFF;}
	.st1{fill:#EDEDED;}
	.st2{fill:#0073AC;}
	.st3{fill:none;stroke:#F36E5B;stroke-miterlimit:10;}
	.st4{fill:#F36E5B;}
	.st5{fill:#01243C;}
	.st6{fill-rule:evenodd;clip-rule:evenodd;fill:#01243C;}
	.st7{fill:#E1F3FB;}
	.st8{clip-path:url(#SVGID_2_);}
	.st9{fill:#AADFF6;}
	.st10{fill:#DFDFDF;}
	.st11{fill:#B8BDC0;}
	.st12{fill:#ECECEC;}
	.st13{fill:#CECECE;}
	.st14{fill:#4CA096;}
	.st15{clip-path:url(#SVGID_4_);}
	.st16{fill:#7FD0E5;}
	.st17{fill:#999999;}
	.st18{fill:#00B1D8;}
	.st19{fill:#B6DFF4;}
	.st20{fill:#E9C0AC;}
	.st21{fill:#152F54;}
	.st22{fill:#6A120E;}
	.st23{fill:#FCCEB9;}
	.st24{fill:#F16A56;}
	.st25{fill:#878787;}
	.st26{fill:#545554;}
	.st27{fill:#345063;}
	.st28{fill:#D0D0CF;}
	.st29{clip-path:url(#SVGID_6_);}
	.st30{clip-path:url(#SVGID_8_);}
	.st31{fill:#D3D3D3;}
	.st32{fill:none;stroke:#41B0D5;stroke-miterlimit:10;}
	.st33{clip-path:url(#SVGID_10_);}
	.st34{clip-path:url(#SVGID_14_);}
	.st35{fill:#D1EFFB;}
	.st36{fill:#E5F4FB;}
	.st37{fill:#D0D1D3;}
	.st38{fill:#767776;}
	.st39{fill:#CFCFCF;}
	.st40{fill:#C3C3C3;}
	.st41{fill:#E2E2E2;}
	.st42{fill:#5D5D5D;}
	.st43{fill:#FFB67F;}
	.st44{fill:#7C8081;}
	.st45{fill:#FFECCC;}
	.st46{fill:#9F9F9F;}
	.st47{fill:#DCDCDC;}
	.st48{fill:#F7F7F7;}
	.st49{fill:#00B2D9;}
	.st50{fill:#AAE1F8;}
	.st51{fill:#E8BAA4;}
	.st52{fill:#0374A8;}
	.st53{fill:#92D7EC;}
	.st54{fill:#C8E7F7;}
	.st55{fill:none;}
	.st56{fill:#00243F;}
	.st57{fill:#FF6C5B;}
	.st58{fill:#FF9E93;}
	.st59{fill:#FEECD1;}
	.st60{fill:#FAD6BD;}
	.st61{clip-path:url(#SVGID_20_);}
	.st62{fill:#80BCB5;}
	.st63{fill:#B7E1DD;}
	.st64{opacity:0.23;}
	.st65{opacity:0.69;}
	.st66{fill:#407A70;}
	.st67{opacity:0.16;}
	.st68{fill:#C3792A;}
	.st69{fill:#4DA298;}
	.st70{fill:#6B4A3E;}
	.st71{fill:#750000;}
	.st72{fill:#BF6F4F;}
	.st73{fill:#2973B6;}
	.st74{fill:#D7F1FC;}
	.st75{opacity:0.24;fill:#01243C;}
	.st76{opacity:0.14;fill:#01243C;}
	.st77{fill:#1B2840;}
	.st78{fill:#151515;}
	.st79{fill:#B8C9E2;}
	.st80{clip-path:url(#SVGID_22_);}
	.st81{clip-path:url(#SVGID_24_);}
	.st82{clip-path:url(#SVGID_26_);}
	.st83{clip-path:url(#SVGID_28_);}
	.st84{clip-path:url(#SVGID_30_);}
	.st85{clip-path:url(#SVGID_32_);}
	.st86{clip-path:url(#SVGID_34_);}
	.st87{clip-path:url(#SVGID_36_);}
	.st88{clip-path:url(#SVGID_38_);}
	.st89{clip-path:url(#SVGID_40_);}
</style>
<g>
	<path class="st5" d="M31.3,21.7h-8.2c-1.3,0-2.3,1-2.3,2.3v5.1c0,0.4,0.2,0.7,0.5,1l1.9,1.4H9.7c-1,0-1.9-0.8-1.9-1.9V6.9
		c0-1,0.9-1.9,1.9-1.9h2.4v0.2c0,0.7,0.5,1.2,1.2,1.2h7.9c0.7,0,1.2-0.5,1.2-1.2V5h2.4c1,0,1.9,0.8,1.9,1.9v7.3h-1.1
		c-0.5,0-0.9,0.4-0.9,0.9v3.8c0,0.5,0.4,0.9,0.9,0.9h3.2c0.5,0,0.9-0.4,0.9-0.9v-3.8c0-0.5-0.4-0.9-0.9-0.9h-1.1V6.9
		c0-1.6-1.3-2.9-2.9-2.9h-2.4V3.8c0-0.7-0.5-1.2-1.2-1.2h-7.9c-0.7,0-1.2,0.5-1.2,1.2V4H9.7C8.1,4,6.8,5.3,6.8,6.9v22.7
		c0,1.6,1.3,2.9,2.9,2.9h13.6V36c0,0.8,0.6,1.4,1.4,1.4h4.9c0.7,0,1.3-0.6,1.3-1.3v-4.4l2.1-1.5c0.3-0.2,0.5-0.6,0.5-1v-5.1
		C33.6,22.8,32.6,21.7,31.3,21.7z M28.7,18.8h-2.9v-3.6h2.9L28.7,18.8z M13.1,3.8c0-0.1,0.1-0.2,0.2-0.2h7.9c0.1,0,0.2,0.1,0.2,0.2
		c0,0,0,0,0,0v1.5c0,0.1-0.1,0.2-0.2,0.2c0,0,0,0,0,0h-7.9c-0.1,0-0.2-0.1-0.2-0.2c0,0,0,0,0,0L13.1,3.8z M32.6,29.2
		c0,0.1,0,0.1-0.1,0.1L31,30.4v-4.9h-1v10.5c0,0.2-0.1,0.3-0.3,0.3h-4.9c-0.2,0-0.4-0.2-0.4-0.4V25.5h-1v4.8l-1.5-1.1
		c0,0-0.1-0.1-0.1-0.1v-5.1c0-0.7,0.6-1.3,1.3-1.3h3.6v5.1h1v-5.1h3.6c0.7,0,1.3,0.6,1.3,1.3L32.6,29.2z"/>
	<path class="st5" d="M14.9,11.2c0-0.3-0.2-0.5-0.5-0.5c0,0,0,0,0,0h-3.9c-0.3,0-0.5,0.2-0.5,0.5c0,0,0,0,0,0v3.9
		c0,0.3,0.2,0.5,0.5,0.5c0,0,0,0,0,0h3.9c0.3,0,0.5-0.2,0.5-0.5c0,0,0,0,0,0V11.2z M13.9,14.7H11v-2.9h2.9V14.7z"/>
	<rect x="17.6" y="12.7" class="st5" width="5.3" height="1"/>
	<path class="st5" d="M14.4,18.5h-3.9c-0.3,0-0.5,0.2-0.5,0.5c0,0,0,0,0,0v3.9c0,0.3,0.2,0.5,0.5,0.5c0,0,0,0,0,0h3.9
		c0.3,0,0.5-0.2,0.5-0.5c0,0,0,0,0,0V19C14.9,18.7,14.7,18.5,14.4,18.5C14.4,18.5,14.4,18.5,14.4,18.5z M13.9,22.4H11v-2.9h2.9V22.4
		z"/>
	<rect x="17.6" y="20.4" class="st5" width="5.3" height="1"/>
</g>
<g>
	<defs>
		<rect id="SVGID_35_" x="593.3" y="-349.4" width="1300" height="650"/>
	</defs>
	<clipPath id="SVGID_2_">
		<use xlink:href="#SVGID_35_"  style="overflow:visible;"/>
	</clipPath>
	<g id="shutterstock_x5F_499509610.psd_3_" class="st8">
		<g>
			<g id="shutterstock_x5F_499509610.psd">
				
					<image style="overflow:visible;" width="5691" height="3794" id="shutterstock_x5F_499509610" xlink:href="E203706858573349.jpg"  transform="matrix(0.3475 0 0 0.3475 11.5018 -635.5153)">
				</image>
			</g>
		</g>
	</g>
</g>
</svg>
