<svg id="Layer_1" data-name="Layer 1" xmlns="http://www.w3.org/2000/svg" viewBox="0 0 40 40"><defs><style>.cls-1{fill:#00243d;}</style></defs><rect class="cls-1" x="7.37" y="18.95" width="3.16" height="1.05"/><rect class="cls-1" x="12.63" y="18.95" width="3.16" height="1.05"/><rect class="cls-1" x="17.89" y="18.95" width="3.16" height="1.05"/><path class="cls-1" d="M39.23,19.38l-2.61-3.26a3.65,3.65,0,0,0-2.87-1.38h-6L17.94,2.51a1,1,0,0,0-.82-.4H15.91a1,1,0,0,0-.82.38,1.08,1.08,0,0,0-.22.88l2.28,11.37h-9L4.25,9.87a1.08,1.08,0,0,0-.82-.4H1.05a1.06,1.06,0,0,0-1,1.06v6.79a3.62,3.62,0,0,0,.81,2.29l3.41,4.27a3.66,3.66,0,0,0,2.87,1.38H17.15L14.87,36.63a1.08,1.08,0,0,0,.22.88,1,1,0,0,0,.82.38h1.21a1,1,0,0,0,.82-.4l9.79-12.23h8.59A3.68,3.68,0,0,0,40,21.58,3.51,3.51,0,0,0,39.23,19.38ZM15.91,3.16h1.21l9.26,11.58H18.22ZM1.05,10.53H3.43L6.8,14.74H1.05ZM17.12,36.84H15.91l2.31-11.58h8.16Zm19.2-12.63H7.09a2.62,2.62,0,0,1-2-1L1.63,19a2.67,2.67,0,0,1-.58-1.64V15.79h32.7a2.61,2.61,0,0,1,2,1L37.54,19h-7V20h7.85l0,0A2.51,2.51,0,0,1,39,21.58,2.63,2.63,0,0,1,36.32,24.21Z"/></svg>