<svg id="Layer_1" data-name="Layer 1" xmlns="http://www.w3.org/2000/svg" viewBox="0 0 40 40"><defs><style>.cls-1,.cls-2,.cls-3{fill:none;stroke:#01243c;}.cls-1{stroke-linecap:round;stroke-linejoin:round;}.cls-2,.cls-3{stroke-miterlimit:10;}.cls-3{stroke-dasharray:1.92017 1.92017;}.cls-4{fill:#01243c;}</style></defs><path class="cls-1" d="M32.14045,7.85955a17.16919,17.16919,0,1,1-24.2809,0"/><path class="cls-2" d="M7.85956,7.85955q.356-.356.72728-.68679"/><path class="cls-3" d="M10.08961,5.97643a17.17993,17.17993,0,0,1,20.5884.57682"/><path class="cls-2" d="M31.41318,7.17276q.37106.3308.72726.68679"/><path class="cls-4" d="M23.59063,25.73067a4.28933,4.28933,0,0,1-2.94046,1.26224v2.503H19.461V27.03816a15.875,15.875,0,0,1-2.15454-.18973,17.34405,17.34405,0,0,1-1.79492-.36915V25.27261a18.71681,18.71681,0,0,0,1.98624.40249,14.46569,14.46569,0,0,0,2.21011.17862,4.22965,4.22965,0,0,0,2.7158-.68193,2.9102,2.9102,0,0,0,.80735-2.33474,3.31349,3.31349,0,0,0-.48187-2.02276,3.09252,3.09252,0,0,0-1.71712-.928l-2.2887-.58111A4.899,4.899,0,0,1,16.23,17.97624a3.86534,3.86534,0,0,1-.74147-2.58164,3.43577,3.43577,0,0,1,.9312-2.58084,4.55106,4.55106,0,0,1,3.04128-.99391V9.36047h1.1892v2.45938q.85262.04406,1.706.1675a11.41566,11.41566,0,0,1,1.34639.25721V13.429a14.52205,14.52205,0,0,0-1.75047-.31358,15.80169,15.80169,0,0,0-1.99735-.13337,4.48648,4.48648,0,0,0-2.457.50252,2.13764,2.13764,0,0,0-.73035,1.8878,2.71069,2.71069,0,0,0,.539,1.87748,3.84852,3.84852,0,0,0,1.90765.91691l2.06483.51362a5.90609,5.90609,0,0,1,1.85128.74861A2.82352,2.82352,0,0,1,24.163,20.69124a5.49372,5.49372,0,0,1,.3485,2.14581,4.26915,4.26915,0,0,1-.92088,2.89362"/></svg>