<svg id="Layer_1" data-name="Layer 1" xmlns="http://www.w3.org/2000/svg" viewBox="0 0 40 40"><defs><style>.cls-1{fill:#00243d;}.cls-2{fill:#fff;}</style></defs><path class="cls-1" d="M23.9,18.74H17.21a.58.58,0,0,1-.59-.59V10.48a.59.59,0,0,1,.59-.59H23.9a.59.59,0,0,1,.59.59v7.67A.58.58,0,0,1,23.9,18.74Zm-6.11-1.17h5.53v-6.5H17.79Z"/><path class="cls-1" d="M33.63,33.45H7.48a1.33,1.33,0,0,1-1.33-1.34V11.23A1.33,1.33,0,0,1,7.48,9.89H33.63A1.33,1.33,0,0,1,35,11.23V32.11A1.33,1.33,0,0,1,33.63,33.45ZM7.48,11.07a.15.15,0,0,0-.16.16V32.11a.17.17,0,0,0,.16.17H33.63a.17.17,0,0,0,.16-.17V11.23a.16.16,0,0,0-.16-.16Z"/><rect class="cls-1" x="23.9" y="27.91" width="7.54" height="1.17"/><path class="cls-2" d="M27.25,9.31l-1.33,2,7.33,3.57h2.39s.26-4.08,0-4.3-1.83-2.07-2.29-2.07S27.25,9.31,27.25,9.31Z"/><rect class="cls-1" x="23.9" y="25.89" width="7.54" height="1.17"/><path class="cls-1" d="M37.66,11.28,34,5.29a1,1,0,0,0-.85-.48H31.68a1,1,0,0,0-.85.48l-3.69,6a1,1,0,0,0,0,1.08l.68,1a1,1,0,0,0,.83.44h7.46a1,1,0,0,0,.83-.44h0l.68-1a1,1,0,0,0,0-1.07Zm-1.53,1.53H28.67l-.68-1,3.69-6h1.44l3.69,6Z"/><rect class="cls-1" x="31.9" y="7.81" width="1" height="2"/><rect class="cls-1" x="31.9" y="10.81" width="1" height="1"/></svg>