<svg xmlns="http://www.w3.org/2000/svg" viewBox="0 0 40 40"><defs><style>.cls-1{fill:#00243d;}.cls-2{fill:none;}</style></defs><title>Asset 163</title><g id="Layer_2" data-name="Layer 2"><g id="Layer_1-2" data-name="Layer 1"><rect class="cls-1" x="3.88" y="14.24" width="11.51" height="1.15"/><rect class="cls-1" x="3.88" y="20" width="4.61" height="1.15"/><rect class="cls-1" x="3.88" y="17.12" width="8.06" height="1.15"/><rect class="cls-1" x="20.58" y="7.91" width="2.3" height="1.15"/><rect class="cls-1" x="34.39" y="17.12" width="2.3" height="1.15"/><path class="cls-1" d="M37.27,14.24H25.76V7.34A2.32,2.32,0,0,0,23.45,5H2.73A2.31,2.31,0,0,0,.43,7.34V23.45a2.31,2.31,0,0,0,2.3,2.31H14.24v6.9A2.32,2.32,0,0,0,16.55,35H37.27a2.31,2.31,0,0,0,2.3-2.31V16.55A2.31,2.31,0,0,0,37.27,14.24Zm0,1.15a1.15,1.15,0,0,1,1.15,1.16V20H25.76V15.39ZM2.73,6.18H23.45a1.16,1.16,0,0,1,1.16,1.16v3.45h-23V7.34A1.15,1.15,0,0,1,2.73,6.18ZM1.58,23.45V11.94h23V23.45a1.16,1.16,0,0,1-1.16,1.16H2.73A1.15,1.15,0,0,1,1.58,23.45ZM37.27,33.82H16.55a1.16,1.16,0,0,1-1.16-1.16v-6.9h8.06a2.32,2.32,0,0,0,2.31-2.31v-2.3H38.42V32.66A1.15,1.15,0,0,1,37.27,33.82Z"/><rect class="cls-2" width="40" height="40"/></g></g></svg>