<?xml version="1.0" encoding="utf-8"?>
<!-- Generator: Adobe Illustrator 24.3.0, SVG Export Plug-In . SVG Version: 6.00 Build 0)  -->
<svg version="1.1" id="Layer_1" xmlns="http://www.w3.org/2000/svg" xmlns:xlink="http://www.w3.org/1999/xlink" x="0px" y="0px"
	 viewBox="0 0 40 40" style="enable-background:new 0 0 40 40;" xml:space="preserve">
<style type="text/css">
	.st0{fill:#00243D;}
	.st1{fill:#00243F;}
	.st2{fill:none;stroke:#00243D;stroke-linejoin:round;}
	.st3{fill:none;}
	.st4{fill:#00243D;stroke:#00243D;stroke-width:0.1;stroke-miterlimit:10;}
	.st5{fill-rule:evenodd;clip-rule:evenodd;fill:none;stroke:#00243D;stroke-width:1.0211;stroke-miterlimit:10;}
</style>
<g>
	<path class="st1" d="M27.5,34.2H12.9c-1.5,0-2.8-1.3-2.8-2.8V8.5c0-1.5,1.3-2.8,2.8-2.8h2.8v0.9h-2.8c-1,0-1.8,0.8-1.8,1.8v22.9
		c0,1,0.8,1.8,1.8,1.8c0,0,0,0,0,0h14.6c1,0,1.9-0.8,1.9-1.8V8.5c0-1-0.9-1.8-1.9-1.8h-2.8V5.7h2.8c1.5,0,2.8,1.2,2.8,2.8v22.9
		C30.3,32.9,29.1,34.2,27.5,34.2z"/>
	<path class="st1" d="M24,8h-7.6c-0.6,0-1.1-0.5-1.1-1.1c0,0,0,0,0,0V5.4c0-0.6,0.5-1.1,1.1-1.1l0,0H24c0.6,0,1.1,0.5,1.1,1.1v1.5
		C25.2,7.5,24.7,8,24,8C24,8,24,8,24,8z M16.4,5.2c-0.1,0-0.2,0.1-0.2,0.2c0,0,0,0,0,0v1.5c0,0.1,0.1,0.2,0.2,0.2c0,0,0,0,0,0H24
		c0.1,0,0.2-0.1,0.2-0.2c0,0,0,0,0,0V5.4c0-0.1-0.1-0.2-0.2-0.2H16.4z M14.8,23.1h10.8v0.9H14.8V23.1z M14.8,27h10.8V28H14.8V27z
		 M19.1,18.8c-0.3,0-0.6-0.1-0.9-0.3l-1.9-1.5l0.6-0.7l1.9,1.5c0.1,0.1,0.2,0.1,0.3,0.1c0.1,0,0.2-0.1,0.3-0.2l3.9-4.9l0.7,0.6
		l-3.9,4.9c-0.2,0.3-0.6,0.5-0.9,0.5L19.1,18.8z"/>
</g>
</svg>
