<svg id="Layer_1" data-name="Layer 1" xmlns="http://www.w3.org/2000/svg" viewBox="0 0 40 40"><defs><style>.cls-1{fill:#00243d;}</style></defs><path class="cls-1" d="M7.53,17.22h1v11h-1Zm25,0h1v11h-1Z"/><path class="cls-1" d="M37.53,13.22H33.15L21,6.92V6.15a2,2,0,0,0,1.5-1.93h-1a1,1,0,1,1-1-1,.5.5,0,0,0,.5-.49h0V1.22H20V2.28a2,2,0,0,0-1.44,2.43A2,2,0,0,0,20,6.15v.77L7.91,13.22H3.53a1,1,0,0,0-1,1v17a1,1,0,0,0,1,1h34a1,1,0,0,0,1-1v-17A1,1,0,0,0,37.53,13.22Zm-17-5.44L31,13.22H10.07Zm17,23.44h-34v-17h34Z"/><path class="cls-1" d="M19.43,23.11l-3.2,3.2-.16-.15.64-2.55-1-.25-.64,2.56a1,1,0,0,0,.27.95l1,1a1,1,0,0,0,.95.26l2.55-.63-.24-1-2.55.63L16.93,27l3.21-3.2Zm5.25-5.56a1,1,0,0,0-.95-.26l-2.55.64.24,1L24,18.26l.16.15-3.2,3.2.7.71,3.2-3.2.16.15-.64,2.56,1,.24L26,19.52a1,1,0,0,0-.26-.95ZM0,34.22H40v1H0Z"/></svg>