<svg id="Layer_1" data-name="Layer 1" xmlns="http://www.w3.org/2000/svg" viewBox="0 0 40 40"><defs><style>.cls-1{fill:#00243d;}</style></defs><path class="cls-1" d="M5.44,27H34.57v1.12H5.44ZM21.9,18.5l-.78-.8,4.31-4.22.78.8Z"/><path class="cls-1" d="M20,36.81A16.81,16.81,0,1,1,36.81,20h0A16.83,16.83,0,0,1,20,36.81Zm0-32.5A15.69,15.69,0,1,0,35.69,20h0A15.71,15.71,0,0,0,20,4.31Z"/><path class="cls-1" d="M20,23a3.27,3.27,0,1,1,3.27-3.27A3.27,3.27,0,0,1,20,23Zm0-5.43a2.16,2.16,0,1,0,2.16,2.16A2.16,2.16,0,0,0,20,17.55ZM15.68,31h8.64v1.12H15.68Z"/><path class="cls-1" d="M32.56,20H31.44a11.45,11.45,0,0,0-22.9-.46V20H7.42a12.57,12.57,0,1,1,25.14-.48Z"/></svg>