<?xml version="1.0" encoding="utf-8"?>
<!-- Generator: Adobe Illustrator 24.2.0, SVG Export Plug-In . SVG Version: 6.00 Build 0)  -->
<svg version="1.1" id="Layer_1" xmlns="http://www.w3.org/2000/svg" xmlns:xlink="http://www.w3.org/1999/xlink" x="0px" y="0px"
	 viewBox="0 0 40 40" style="enable-background:new 0 0 40 40;" xml:space="preserve">
<style type="text/css">
	.st0{fill:#00243D;stroke:#FFFFFF;stroke-width:0.5;stroke-miterlimit:10;}
	.st1{fill:none;stroke:#00243D;stroke-width:1.2;stroke-miterlimit:10;}
	.st2{fill:none;stroke:#00243D;stroke-width:1.3;stroke-miterlimit:10;}
	.st3{fill:none;stroke:#00243D;stroke-miterlimit:10;}
</style>
<g>
	<g>
		<g>
			<path class="st2" d="M38.5,14.5l-8.8,1.9c-0.4,0.1-0.9,0-1.2-0.3l-3.4-3.6c-0.3-0.3-0.4-0.8-0.3-1.2l2.4-8.6"/>
			<line class="st2" x1="26.8" y1="14.3" x2="37.3" y2="4.3"/>
		</g>
		<g>
			<path class="st2" d="M1.5,26.3l8.6-2.4c0.4-0.1,0.9,0,1.2,0.3l3.6,3.4c0.3,0.3,0.5,0.8,0.4,1.2l-1.9,8.8"/>
			<line class="st2" x1="13.2" y1="25.9" x2="3.3" y2="36.5"/>
		</g>
		<g>
			<path class="st2" d="M12.6,2.4l2.7,8.5c0.2,0.4,0.1,0.9-0.2,1.3L11.9,16c-0.3,0.3-0.8,0.5-1.2,0.4l-8.8-1.5"/>
			<line class="st2" x1="13.5" y1="14" x2="2.6" y2="4.6"/>
		</g>
		<g>
			<path class="st2" d="M28,37.6l-3.2-8.4c-0.2-0.4-0.1-0.9,0.1-1.3l3-4c0.3-0.4,0.7-0.5,1.2-0.5l8.9,1"/>
			<line class="st2" x1="26.5" y1="26" x2="37.9" y2="34.8"/>
		</g>
	</g>
	<path class="st2" d="M20,24.1c-2.1,0-4.1-1.9-4.1-4.1s1.9-4.1,4.1-4.1s4.1,1.9,4.1,4.1S22.3,24.1,20,24.1z"/>
</g>
</svg>
