<svg id="Layer_1" data-name="Layer 1" xmlns="http://www.w3.org/2000/svg" viewBox="0 0 40 40"><defs><style>.cls-1{fill:#00243d;}</style></defs><path class="cls-1" d="M31,15l1.32-2.37a1,1,0,0,0-.17-1.19L30.54,9.86a1,1,0,0,0-1.19-.17L27,11a12.88,12.88,0,0,0-4.1-1.71L22.1,5.75a1,1,0,0,0-1-.78h-2.2a1,1,0,0,0-1,.78L17.16,9.3A13,13,0,1,0,31,15Zm-1.15-4.44,1.59,1.59L30.34,14.1a12.92,12.92,0,0,0-2.45-2.45ZM18.92,6h2.2l.7,3.14a12,12,0,0,0-3.59,0ZM20,34A12,12,0,1,1,32,22,12,12,0,0,1,20,34Z"/><path class="cls-1" d="M20.52,20V16.47h-1V20a2,2,0,1,0,1,0ZM20,23a1,1,0,1,1,1-1A1,1,0,0,1,20,23Zm-.5-11.5h1v2h-1Zm-10,10h2v1h-2Zm10,9h1v2h-1Zm9-9h2v1h-2Z"/></svg>