<svg id="Layer_1" data-name="Layer 1" xmlns="http://www.w3.org/2000/svg" viewBox="0 0 1232 370"><defs><style>.cls-1{fill:#414a51;}.cls-2{fill:#00aadc;}.cls-3{fill:#f2f0e6;}.cls-4{fill:#d2d5d2;}.cls-5{fill:#151415;}.cls-6{fill:#fff;}.cls-7{fill:#bce5f2;}.cls-8{fill:#01243c;}.cls-9{fill:#bbbfbc;}.cls-10,.cls-28{fill:#02243c;}.cls-11{fill:#ededed;}.cls-12{fill:#e3e3e2;}.cls-13{fill:#141414;}.cls-14{fill:#41b0d5;}.cls-15{fill:#f36e5b;}.cls-16{fill:#f58b7c;}.cls-17{fill:#345063;}.cls-18{fill:#677c8a;}.cls-19{fill:#878787;}.cls-20{fill:#d0d0cf;}.cls-21,.cls-27{fill:none;stroke-miterlimit:10;}.cls-21{stroke:#dfdfd8;stroke-width:4px;}.cls-22{fill:#d9dbd8;}.cls-23{fill:#7c8082;}.cls-24{fill:#9da1a4;}.cls-25{fill:#d0d2d4;}.cls-26{fill:#c2c5c7;}.cls-27{stroke:#7c8082;stroke-width:1.73px;}.cls-28{isolation:isolate;font-size:16px;font-family:MaerskHeadline-Regular, Maersk Headline;}.cls-29{letter-spacing:0em;}.cls-30{letter-spacing:0em;}.cls-31{letter-spacing:-0.02em;}.cls-32{letter-spacing:-0.02em;}.cls-33{letter-spacing:-0.01em;}.cls-34{letter-spacing:-0.01em;}.cls-35{letter-spacing:-0.01em;}.cls-36{fill:#14476e;}.cls-37{fill:#4e6677;}</style></defs><rect class="cls-1" x="349.51" y="52.13" width="75.31" height="4.91"/><path class="cls-2" d="M446.12,45.2,442,36.41a1.38,1.38,0,0,0-1.25-.8H426.2A1.38,1.38,0,0,0,424.82,37V58.67h7.25c.12-5,1.75-6.22,5.59-6.22s5.41,1.24,5.53,6.22h1.67a1.38,1.38,0,0,0,1.38-1.38V45.78A1.43,1.43,0,0,0,446.12,45.2Z"/><path class="cls-3" d="M422.26,52.13V33.9a2.09,2.09,0,0,0-2.09-2.09H353.6a2.1,2.1,0,0,0-2.1,2.09V52.13Z"/><rect class="cls-4" x="354.64" y="34.88" width="1.5" height="14.17" rx="0.53"/><rect class="cls-4" x="358.14" y="34.88" width="1.5" height="14.17" rx="0.53"/><rect class="cls-4" x="361.64" y="34.88" width="1.5" height="14.17" rx="0.53"/><rect class="cls-4" x="365.14" y="34.88" width="1.5" height="14.17" rx="0.53"/><path class="cls-4" d="M369.16,34.88h.45a.52.52,0,0,1,.52.52V48.53a.53.53,0,0,1-.53.53h-.45a.53.53,0,0,1-.53-.53V35.41a.53.53,0,0,1,.53-.53Z"/><rect class="cls-4" x="372.14" y="34.88" width="1.5" height="14.17" rx="0.53"/><rect class="cls-4" x="375.64" y="34.88" width="1.5" height="14.17" rx="0.53"/><rect class="cls-4" x="379.13" y="34.88" width="1.5" height="14.17" rx="0.53"/><rect class="cls-4" x="382.63" y="34.88" width="1.5" height="14.17" rx="0.53"/><rect class="cls-4" x="386.13" y="34.88" width="1.5" height="14.17" rx="0.53"/><rect class="cls-4" x="389.63" y="34.88" width="1.5" height="14.17" rx="0.53"/><path class="cls-4" d="M393.66,34.88h.45a.53.53,0,0,1,.53.53V48.53a.53.53,0,0,1-.53.53h-.45a.52.52,0,0,1-.52-.52V35.41a.53.53,0,0,1,.53-.53Z"/><rect class="cls-4" x="396.63" y="34.88" width="1.5" height="14.17" rx="0.53"/><rect class="cls-4" x="400.13" y="34.88" width="1.5" height="14.17" rx="0.53"/><rect class="cls-4" x="403.63" y="34.88" width="1.5" height="14.17" rx="0.53"/><rect class="cls-4" x="407.12" y="34.88" width="1.5" height="14.17" rx="0.53"/><rect class="cls-4" x="410.62" y="34.88" width="1.5" height="14.17" rx="0.53"/><rect class="cls-4" x="414.12" y="34.88" width="1.5" height="14.17" rx="0.53"/><rect class="cls-4" x="417.62" y="34.88" width="1.5" height="14.17" rx="0.53"/><polygon class="cls-5" points="377.15 44.12 377.15 39.82 378.3 39.82 379.75 43.03 381.18 39.82 382.28 39.82 382.28 44.12 381.33 44.12 381.33 41.62 380.24 44.12 379.24 44.12 378.13 41.63 378.13 44.12 377.15 44.12"/><path class="cls-5" d="M383.81,44.12H382.7l1.91-4.3H386l1.92,4.3h-1.1l-.38-.86h-2.24Zm2.27-1.67-.79-1.82-.77,1.82Z"/><polygon class="cls-5" points="388.34 44.12 388.34 39.82 392.45 39.82 392.45 40.68 389.34 40.68 389.34 41.53 392.01 41.53 392.01 42.37 389.34 42.37 389.34 43.26 392.46 43.26 392.46 44.12 388.34 44.12"/><path class="cls-5" d="M393.26,44.12v-4.3h3.44a.65.65,0,0,1,.72.72V42c0,.33-.29.63-.86.63h-.1l1,1.5h-1.1l-.95-1.47h-1.14v1.47Zm1-2.33h2.16V40.68h-2.16Z"/><path class="cls-5" d="M399.24,44.12h-.34a.58.58,0,0,1-.66-.63v-.56h1v.33h2.12v-.88h-2.44a.62.62,0,0,1-.66-.62V40.48a.65.65,0,0,1,.67-.66h2.79a.63.63,0,0,1,.63.69V41h-1v-.34h-2.12v.85h2.43a.65.65,0,0,1,.68.69v1.23a.6.6,0,0,1-.66.67Z"/><polygon class="cls-5" points="403.31 44.12 403.31 39.82 404.33 39.82 404.33 41.54 406.28 39.82 407.66 39.82 405.34 41.82 407.75 44.12 406.31 44.12 404.33 42.16 404.33 44.12 403.31 44.12"/><path class="cls-2" d="M364.88,37.08h7A1.11,1.11,0,0,1,373,38.19v7.54a1.12,1.12,0,0,1-1.12,1.12h-7a1.11,1.11,0,0,1-1.11-1.11V38.19A1.11,1.11,0,0,1,364.88,37.08Z"/><polygon class="cls-6" points="369.88 41.72 371.71 39.42 371.7 39.42 369.06 40.69 368.41 37.83 368.4 37.83 367.75 40.69 365.11 39.42 365.1 39.42 366.93 41.72 364.29 42.99 364.29 42.99 367.22 42.99 366.57 45.85 366.58 45.86 368.4 43.57 370.23 45.86 370.24 45.85 369.59 42.99 372.52 42.99 372.52 42.99 369.88 41.72"/><rect class="cls-7" x="429.32" y="37.85" width="3.67" height="3.87" rx="0.44"/><path class="cls-8" d="M364.36,58.07A4.39,4.39,0,1,1,360,53.68a4.39,4.39,0,0,1,4.39,4.39"/><path class="cls-9" d="M362.45,58.07A2.48,2.48,0,1,1,360,55.59a2.48,2.48,0,0,1,2.48,2.48"/><path class="cls-8" d="M374.41,58.07A4.39,4.39,0,1,1,370,53.68a4.38,4.38,0,0,1,4.38,4.39"/><path class="cls-9" d="M372.5,58.07A2.48,2.48,0,1,1,370,55.59a2.47,2.47,0,0,1,2.47,2.48"/><path class="cls-8" d="M411,58.07a4.39,4.39,0,1,1-4.38-4.39A4.38,4.38,0,0,1,411,58.07"/><path class="cls-9" d="M409.11,58.07a2.48,2.48,0,1,1-2.47-2.48,2.48,2.48,0,0,1,2.47,2.48"/><path class="cls-8" d="M421.08,58.07a4.39,4.39,0,1,1-4.39-4.39,4.39,4.39,0,0,1,4.39,4.39"/><path class="cls-9" d="M419.17,58.07a2.48,2.48,0,1,1-2.48-2.48,2.48,2.48,0,0,1,2.48,2.48"/><path class="cls-8" d="M442,58.07a4.39,4.39,0,1,1-4.39-4.39A4.39,4.39,0,0,1,442,58.07"/><path class="cls-9" d="M440.1,58.07a2.47,2.47,0,1,1-2.47-2.48,2.47,2.47,0,0,1,2.47,2.48"/><path class="cls-9" d="M378.78,54h6.39a2.14,2.14,0,0,1,2.14,2.14v1.82a2.14,2.14,0,0,1-2.14,2.14h-6.39A2.13,2.13,0,0,1,376.65,58V56.13A2.14,2.14,0,0,1,378.78,54Z"/><path class="cls-7" d="M443.41,47.44h-8a.52.52,0,0,1-.53-.52V38.38a.53.53,0,0,1,.53-.53h4.74a.52.52,0,0,1,.47.3l3.25,6.9a.54.54,0,0,1,.05.22v1.65A.52.52,0,0,1,443.41,47.44Z"/><rect class="cls-1" x="351.73" y="188.86" width="75.31" height="4.91"/><path class="cls-2" d="M448.34,181.94l-4.08-8.79a1.39,1.39,0,0,0-1.26-.8H428.43a1.39,1.39,0,0,0-1.39,1.39v21.67h7.25c.13-5,1.76-6.22,5.59-6.22s5.41,1.24,5.54,6.22h1.66a1.39,1.39,0,0,0,1.39-1.39v-11.5A1.29,1.29,0,0,0,448.34,181.94Z"/><path class="cls-3" d="M424.49,188.86V170.64a2.09,2.09,0,0,0-2.1-2.09H355.82a2.08,2.08,0,0,0-2.09,2.09v18.22Z"/><rect class="cls-4" x="356.87" y="171.62" width="1.5" height="14.17" rx="0.53"/><rect class="cls-4" x="360.36" y="171.62" width="1.5" height="14.17" rx="0.53"/><rect class="cls-4" x="363.86" y="171.62" width="1.5" height="14.17" rx="0.53"/><rect class="cls-4" x="367.36" y="171.62" width="1.5" height="14.17" rx="0.53"/><path class="cls-4" d="M371.39,171.62h.45a.52.52,0,0,1,.52.52v13.12a.53.53,0,0,1-.53.53h-.45a.53.53,0,0,1-.53-.53V172.15A.53.53,0,0,1,371.39,171.62Z"/><rect class="cls-4" x="374.36" y="171.62" width="1.5" height="14.17" rx="0.53"/><rect class="cls-4" x="377.86" y="171.62" width="1.5" height="14.17" rx="0.53"/><rect class="cls-4" x="381.36" y="171.62" width="1.5" height="14.17" rx="0.53"/><rect class="cls-4" x="384.86" y="171.62" width="1.5" height="14.17" rx="0.53"/><rect class="cls-4" x="388.36" y="171.62" width="1.5" height="14.17" rx="0.53"/><rect class="cls-4" x="391.86" y="171.62" width="1.5" height="14.17" rx="0.53"/><path class="cls-4" d="M395.88,171.62h.45a.53.53,0,0,1,.53.53v13.12a.53.53,0,0,1-.53.53h-.45a.52.52,0,0,1-.52-.52V172.15A.53.53,0,0,1,395.88,171.62Z"/><rect class="cls-4" x="398.85" y="171.62" width="1.5" height="14.17" rx="0.53"/><rect class="cls-4" x="402.35" y="171.62" width="1.5" height="14.17" rx="0.53"/><rect class="cls-4" x="405.85" y="171.62" width="1.5" height="14.17" rx="0.53"/><rect class="cls-4" x="409.35" y="171.62" width="1.5" height="14.17" rx="0.53"/><rect class="cls-4" x="412.85" y="171.62" width="1.5" height="14.17" rx="0.53"/><rect class="cls-4" x="416.35" y="171.62" width="1.5" height="14.17" rx="0.53"/><rect class="cls-4" x="419.85" y="171.62" width="1.5" height="14.17" rx="0.53"/><polygon class="cls-5" points="379.38 180.86 379.38 176.55 380.52 176.55 381.98 179.77 383.4 176.55 384.5 176.55 384.5 180.86 383.56 180.86 383.56 178.35 382.47 180.86 381.46 180.86 380.36 178.37 380.36 180.86 379.38 180.86"/><path class="cls-5" d="M386,180.86h-1.11l1.91-4.31h1.37l1.92,4.31H389l-.38-.86H386.4Zm2.27-1.67-.79-1.82-.77,1.82Z"/><polygon class="cls-5" points="390.57 180.86 390.57 176.55 394.68 176.55 394.68 177.41 391.56 177.41 391.56 178.27 394.23 178.27 394.23 179.11 391.56 179.11 391.56 180 394.68 180 394.68 180.86 390.57 180.86"/><path class="cls-5" d="M395.48,180.86v-4.31h3.44a.67.67,0,0,1,.73.72v1.45c0,.33-.29.63-.87.63h-.09l1,1.51h-1.11l-.95-1.47h-1.14v1.47Zm1-2.33h2.16v-1.12h-2.16Z"/><path class="cls-5" d="M401.46,180.86h-.34a.59.59,0,0,1-.66-.63v-.56h1V180h2.13v-.88h-2.44a.63.63,0,0,1-.67-.63v-1.28a.65.65,0,0,1,.68-.65h2.78a.63.63,0,0,1,.64.68v.52h-1v-.34h-2.13v.84h2.43a.66.66,0,0,1,.69.7v1.23a.61.61,0,0,1-.67.67Z"/><polygon class="cls-5" points="405.54 180.86 405.54 176.56 406.56 176.56 406.56 178.28 408.5 176.56 409.89 176.56 407.57 178.55 409.97 180.86 408.54 180.86 406.56 178.9 406.56 180.86 405.54 180.86"/><path class="cls-2" d="M367.11,173.82h7a1.12,1.12,0,0,1,1.12,1.12v7.54a1.11,1.11,0,0,1-1.11,1.11h-7a1.11,1.11,0,0,1-1.11-1.11v-7.54A1.11,1.11,0,0,1,367.11,173.82Z"/><polygon class="cls-6" points="372.11 178.45 373.93 176.16 373.93 176.15 371.29 177.43 370.63 174.57 370.63 174.57 369.97 177.43 367.33 176.15 367.32 176.16 369.15 178.45 366.51 179.72 366.51 179.73 369.44 179.73 368.79 182.59 368.8 182.59 370.63 180.3 372.46 182.59 372.46 182.59 371.81 179.73 374.74 179.73 374.75 179.72 372.11 178.45"/><rect class="cls-7" x="431.55" y="174.59" width="3.67" height="3.87" rx="0.44"/><path class="cls-8" d="M366.58,194.8a4.39,4.39,0,1,1-4.38-4.38,4.39,4.39,0,0,1,4.38,4.38"/><path class="cls-9" d="M364.67,194.8a2.48,2.48,0,1,1-2.47-2.47,2.48,2.48,0,0,1,2.47,2.47"/><path class="cls-8" d="M376.64,194.8a4.39,4.39,0,1,1-4.39-4.38,4.39,4.39,0,0,1,4.39,4.38"/><path class="cls-9" d="M374.73,194.8a2.48,2.48,0,1,1-2.48-2.47,2.48,2.48,0,0,1,2.48,2.47"/><path class="cls-8" d="M413.25,194.8a4.39,4.39,0,1,1-4.39-4.38,4.4,4.4,0,0,1,4.39,4.38"/><path class="cls-9" d="M411.33,194.8a2.47,2.47,0,1,1-2.47-2.47,2.47,2.47,0,0,1,2.47,2.47"/><path class="cls-8" d="M423.3,194.8a4.39,4.39,0,1,1-4.38-4.38,4.39,4.39,0,0,1,4.38,4.38"/><path class="cls-9" d="M421.39,194.8a2.48,2.48,0,1,1-2.47-2.47,2.48,2.48,0,0,1,2.47,2.47"/><path class="cls-8" d="M444.24,194.8a4.39,4.39,0,1,1-4.38-4.38,4.39,4.39,0,0,1,4.38,4.38"/><path class="cls-9" d="M442.33,194.8a2.48,2.48,0,1,1-2.48-2.47,2.48,2.48,0,0,1,2.48,2.47"/><path class="cls-9" d="M381,190.73h6.39a2.14,2.14,0,0,1,2.14,2.14v1.82a2.14,2.14,0,0,1-2.14,2.14H381a2.13,2.13,0,0,1-2.13-2.13v-1.82A2.14,2.14,0,0,1,381,190.73Z"/><path class="cls-7" d="M445.63,184.18h-8a.52.52,0,0,1-.52-.53v-8.54a.52.52,0,0,1,.52-.52h4.74a.53.53,0,0,1,.48.3l3.25,6.89a.59.59,0,0,1,.05.23v1.64A.53.53,0,0,1,445.63,184.18Z"/><rect class="cls-1" x="351.73" y="330.98" width="75.31" height="4.91"/><path class="cls-2" d="M448.34,324.05l-4.08-8.78a1.4,1.4,0,0,0-1.26-.81H428.43a1.39,1.39,0,0,0-1.39,1.39v21.67h7.25c.13-4.95,1.76-6.22,5.59-6.22s5.41,1.24,5.54,6.22h1.66a1.38,1.38,0,0,0,1.39-1.38v-11.5A1.31,1.31,0,0,0,448.34,324.05Z"/><path class="cls-3" d="M424.49,331V312.76a2.1,2.1,0,0,0-2.1-2.1H355.82a2.09,2.09,0,0,0-2.09,2.1V331Z"/><rect class="cls-4" x="356.87" y="313.73" width="1.5" height="14.17" rx="0.53"/><rect class="cls-4" x="360.36" y="313.73" width="1.5" height="14.17" rx="0.53"/><rect class="cls-4" x="363.86" y="313.73" width="1.5" height="14.17" rx="0.53"/><rect class="cls-4" x="367.36" y="313.73" width="1.5" height="14.17" rx="0.53"/><path class="cls-4" d="M371.39,313.73h.45a.52.52,0,0,1,.52.52v13.12a.53.53,0,0,1-.53.53h-.45a.53.53,0,0,1-.53-.53V314.26a.53.53,0,0,1,.53-.53Z"/><rect class="cls-4" x="374.36" y="313.73" width="1.5" height="14.17" rx="0.53"/><rect class="cls-4" x="377.86" y="313.73" width="1.5" height="14.17" rx="0.53"/><rect class="cls-4" x="381.36" y="313.73" width="1.5" height="14.17" rx="0.53"/><rect class="cls-4" x="384.86" y="313.73" width="1.5" height="14.17" rx="0.53"/><rect class="cls-4" x="388.36" y="313.73" width="1.5" height="14.17" rx="0.53"/><rect class="cls-4" x="391.86" y="313.73" width="1.5" height="14.17" rx="0.53"/><path class="cls-4" d="M395.88,313.73h.45a.53.53,0,0,1,.53.53v13.12a.53.53,0,0,1-.53.53h-.45a.52.52,0,0,1-.52-.52V314.26A.53.53,0,0,1,395.88,313.73Z"/><rect class="cls-4" x="398.85" y="313.73" width="1.5" height="14.17" rx="0.53"/><rect class="cls-4" x="402.35" y="313.73" width="1.5" height="14.17" rx="0.53"/><rect class="cls-4" x="405.85" y="313.73" width="1.5" height="14.17" rx="0.53"/><rect class="cls-4" x="409.35" y="313.73" width="1.5" height="14.17" rx="0.53"/><rect class="cls-4" x="412.85" y="313.73" width="1.5" height="14.17" rx="0.53"/><rect class="cls-4" x="416.35" y="313.73" width="1.5" height="14.17" rx="0.53"/><rect class="cls-4" x="419.85" y="313.73" width="1.5" height="14.17" rx="0.53"/><polygon class="cls-5" points="379.38 322.97 379.38 318.67 380.52 318.67 381.98 321.88 383.4 318.67 384.5 318.67 384.5 322.97 383.56 322.97 383.56 320.47 382.47 322.97 381.46 322.97 380.36 320.48 380.36 322.97 379.38 322.97"/><path class="cls-5" d="M386,323h-1.11l1.91-4.3h1.37l1.92,4.3H389l-.38-.86H386.4Zm2.27-1.66-.79-1.83-.77,1.83Z"/><polygon class="cls-5" points="390.57 322.97 390.57 318.67 394.68 318.67 394.68 319.53 391.56 319.53 391.56 320.38 394.23 320.38 394.23 321.22 391.56 321.22 391.56 322.11 394.68 322.11 394.68 322.97 390.57 322.97"/><path class="cls-5" d="M395.48,323v-4.3h3.44a.66.66,0,0,1,.73.72v1.45c0,.33-.29.63-.87.63h-.09l1,1.5h-1.11l-.95-1.47h-1.14V323Zm1-2.33h2.16v-1.11h-2.16Z"/><path class="cls-5" d="M401.46,323h-.34a.59.59,0,0,1-.66-.64v-.56h1v.33h2.13v-.88h-2.44a.62.62,0,0,1-.67-.62v-1.28a.65.65,0,0,1,.68-.66h2.78a.63.63,0,0,1,.64.69v.51h-1v-.34h-2.13v.85h2.43a.66.66,0,0,1,.69.69v1.23a.61.61,0,0,1-.67.68Z"/><polygon class="cls-5" points="405.54 322.98 405.54 318.67 406.56 318.67 406.56 320.39 408.5 318.67 409.89 318.67 407.57 320.67 409.97 322.98 408.54 322.98 406.56 321.02 406.56 322.98 405.54 322.98"/><path class="cls-2" d="M367.11,315.93h7a1.12,1.12,0,0,1,1.12,1.12v7.54a1.11,1.11,0,0,1-1.11,1.11h-7a1.11,1.11,0,0,1-1.11-1.11V317A1.11,1.11,0,0,1,367.11,315.93Z"/><polygon class="cls-6" points="372.11 320.57 373.93 318.27 373.93 318.27 371.29 319.54 370.63 316.68 370.63 316.68 369.97 319.54 367.33 318.27 367.32 318.27 369.15 320.57 366.51 321.84 366.51 321.85 369.44 321.85 368.79 324.7 368.8 324.71 370.63 322.42 372.46 324.71 372.46 324.7 371.81 321.85 374.74 321.85 374.75 321.84 372.11 320.57"/><rect class="cls-7" x="431.55" y="316.71" width="3.67" height="3.87" rx="0.44"/><path class="cls-8" d="M366.58,336.92a4.39,4.39,0,1,1-4.38-4.39,4.38,4.38,0,0,1,4.38,4.39"/><path class="cls-9" d="M364.67,336.92a2.48,2.48,0,1,1-2.47-2.48,2.48,2.48,0,0,1,2.47,2.48"/><path class="cls-8" d="M376.64,336.92a4.39,4.39,0,1,1-4.39-4.39,4.38,4.38,0,0,1,4.39,4.39"/><path class="cls-9" d="M374.73,336.92a2.48,2.48,0,1,1-2.48-2.48,2.48,2.48,0,0,1,2.48,2.48"/><path class="cls-8" d="M413.25,336.92a4.39,4.39,0,1,1-4.39-4.39,4.39,4.39,0,0,1,4.39,4.39"/><path class="cls-9" d="M411.33,336.92a2.47,2.47,0,1,1-2.47-2.48,2.47,2.47,0,0,1,2.47,2.48"/><path class="cls-8" d="M423.3,336.92a4.39,4.39,0,1,1-4.38-4.39,4.38,4.38,0,0,1,4.38,4.39"/><path class="cls-9" d="M421.39,336.92a2.48,2.48,0,1,1-2.47-2.48,2.48,2.48,0,0,1,2.47,2.48"/><path class="cls-8" d="M444.24,336.92a4.39,4.39,0,1,1-4.38-4.39,4.38,4.38,0,0,1,4.38,4.39"/><path class="cls-9" d="M442.33,336.92a2.48,2.48,0,1,1-2.48-2.48,2.48,2.48,0,0,1,2.48,2.48"/><path class="cls-9" d="M381,332.84h6.39a2.14,2.14,0,0,1,2.14,2.14v1.82a2.14,2.14,0,0,1-2.14,2.14H381a2.13,2.13,0,0,1-2.13-2.13V335a2.14,2.14,0,0,1,2.14-2.14Z"/><path class="cls-7" d="M445.63,326.29h-8a.52.52,0,0,1-.52-.52v-8.54a.52.52,0,0,1,.52-.52h4.74a.52.52,0,0,1,.48.3l3.25,6.89a.54.54,0,0,1,.05.22v1.65A.52.52,0,0,1,445.63,326.29Z"/><polygon class="cls-10" points="45.04 178.39 45.04 160.63 37.54 160.63 32.73 178.39 45.04 178.39"/><path class="cls-11" d="M129.33,177.81v-13.6a1.56,1.56,0,0,1,1.56-1.56h49.68a1.56,1.56,0,0,1,1.56,1.56v13.6Z"/><rect class="cls-12" x="178.67" y="164.94" width="1.12" height="10.57" rx="0.37" transform="translate(358.46 340.46) rotate(-180)"/><rect class="cls-12" x="176.06" y="164.94" width="1.12" height="10.57" rx="0.37" transform="translate(353.23 340.46) rotate(-180)"/><rect class="cls-12" x="173.45" y="164.94" width="1.12" height="10.57" rx="0.37" transform="translate(348.01 340.46) rotate(-180)"/><rect class="cls-12" x="170.84" y="164.94" width="1.12" height="10.57" rx="0.37" transform="translate(342.79 340.46) rotate(-180)"/><rect class="cls-12" x="168.22" y="164.94" width="1.12" height="10.57" rx="0.37" transform="translate(337.57 340.46) rotate(-180)"/><rect class="cls-12" x="165.61" y="164.94" width="1.12" height="10.57" rx="0.37" transform="translate(332.35 340.46) rotate(-180)"/><rect class="cls-12" x="163" y="164.94" width="1.12" height="10.57" rx="0.37" transform="translate(327.13 340.46) rotate(-180)"/><rect class="cls-12" x="160.39" y="164.94" width="1.12" height="10.57" rx="0.37" transform="translate(321.9 340.46) rotate(-180)"/><rect class="cls-12" x="157.78" y="164.94" width="1.12" height="10.57" rx="0.37" transform="translate(316.68 340.46) rotate(180)"/><rect class="cls-12" x="155.17" y="164.94" width="1.12" height="10.57" rx="0.37" transform="translate(311.46 340.46) rotate(-180)"/><rect class="cls-12" x="152.56" y="164.94" width="1.12" height="10.57" rx="0.37" transform="translate(306.24 340.46) rotate(-180)"/><rect class="cls-12" x="149.95" y="164.94" width="1.12" height="10.57" rx="0.37" transform="translate(301.02 340.46) rotate(-180)"/><rect class="cls-12" x="147.34" y="164.94" width="1.12" height="10.57" rx="0.37" transform="translate(295.79 340.46) rotate(-180)"/><rect class="cls-12" x="144.73" y="164.94" width="1.12" height="10.57" rx="0.37" transform="translate(290.57 340.46) rotate(-180)"/><rect class="cls-12" x="142.12" y="164.94" width="1.12" height="10.57" rx="0.37" transform="translate(285.35 340.46) rotate(-180)"/><rect class="cls-12" x="139.5" y="164.94" width="1.12" height="10.57" rx="0.37" transform="translate(280.13 340.46) rotate(180)"/><rect class="cls-12" x="136.89" y="164.94" width="1.12" height="10.57" rx="0.37" transform="translate(274.91 340.46) rotate(-180)"/><rect class="cls-12" x="134.28" y="164.94" width="1.12" height="10.57" rx="0.37" transform="translate(269.69 340.46) rotate(180)"/><rect class="cls-12" x="131.67" y="164.94" width="1.12" height="10.57" rx="0.37" transform="translate(264.46 340.46) rotate(180)"/><polygon class="cls-13" points="149.31 171.84 149.31 168.63 150.16 168.63 151.25 171.02 152.31 168.63 153.13 168.63 153.13 171.84 152.43 171.84 152.43 169.97 151.61 171.84 150.86 171.84 150.04 169.98 150.04 171.84 149.31 171.84"/><path class="cls-13" d="M154.28,171.84h-.83l1.42-3.22h1l1.44,3.22h-.82l-.28-.64h-1.68Zm1.69-1.25-.59-1.36-.58,1.36Z"/><polygon class="cls-13" points="157.66 171.84 157.66 168.63 160.72 168.63 160.72 169.26 158.4 169.26 158.4 169.9 160.39 169.9 160.39 170.53 158.4 170.53 158.4 171.19 160.73 171.19 160.73 171.84 157.66 171.84"/><path class="cls-13" d="M161.33,171.84v-3.22h2.56a.5.5,0,0,1,.55.54v1.08c0,.25-.22.47-.65.47h-.07l.74,1.13h-.82l-.71-1.1h-.85v1.1Zm.75-1.74h1.61v-.83h-1.61Z"/><path class="cls-13" d="M165.79,171.84h-.26a.44.44,0,0,1-.49-.47V171h.75v.25h1.58v-.66h-1.82a.47.47,0,0,1-.5-.47v-.95a.49.49,0,0,1,.51-.49h2.08a.47.47,0,0,1,.47.51v.38h-.74v-.25h-1.58v.63h1.81a.49.49,0,0,1,.51.52v.92a.45.45,0,0,1-.49.5Z"/><polygon class="cls-13" points="168.83 171.84 168.83 168.63 169.59 168.63 169.59 169.91 171.04 168.63 172.07 168.63 170.34 170.12 172.14 171.84 171.07 171.84 169.59 170.38 169.59 171.84 168.83 171.84"/><rect class="cls-14" x="139.32" y="166.58" width="6.91" height="7.29" rx="0.83"/><polygon class="cls-6" points="143.88 170.04 145.25 168.33 145.24 168.32 143.27 169.28 142.78 167.14 142.78 167.14 142.29 169.28 140.32 168.32 140.31 168.33 141.68 170.04 139.71 170.99 139.71 171 141.9 171 141.41 173.13 141.42 173.13 142.78 171.42 144.14 173.13 144.15 173.13 143.66 171 145.85 171 145.85 170.99 143.88 170.04"/><path class="cls-11" d="M74.36,194.58V181a1.56,1.56,0,0,1,1.57-1.56H125.6a1.56,1.56,0,0,1,1.57,1.56v13.6Z"/><rect class="cls-12" x="123.7" y="181.71" width="1.12" height="10.57" rx="0.37" transform="translate(248.53 373.99) rotate(-180)"/><rect class="cls-12" x="121.09" y="181.71" width="1.12" height="10.57" rx="0.37" transform="translate(243.3 373.99) rotate(-180)"/><rect class="cls-12" x="118.48" y="181.71" width="1.12" height="10.57" rx="0.37" transform="translate(238.08 373.99) rotate(-180)"/><rect class="cls-12" x="115.87" y="181.71" width="1.12" height="10.57" rx="0.37" transform="translate(232.86 373.99) rotate(-180)"/><rect class="cls-12" x="113.26" y="181.71" width="1.12" height="10.57" rx="0.37" transform="translate(227.64 373.99) rotate(-180)"/><rect class="cls-12" x="110.65" y="181.71" width="1.12" height="10.57" rx="0.37" transform="translate(222.42 373.99) rotate(-180)"/><rect class="cls-12" x="108.04" y="181.71" width="1.12" height="10.57" rx="0.37" transform="translate(217.2 373.99) rotate(-180)"/><rect class="cls-12" x="105.43" y="181.71" width="1.12" height="10.57" rx="0.37" transform="translate(211.97 373.99) rotate(180)"/><rect class="cls-12" x="102.82" y="181.71" width="1.12" height="10.57" rx="0.37" transform="translate(206.75 373.99) rotate(-180)"/><rect class="cls-12" x="100.21" y="181.71" width="1.12" height="10.57" rx="0.37" transform="translate(201.53 373.99) rotate(-180)"/><rect class="cls-12" x="97.59" y="181.71" width="1.12" height="10.57" rx="0.37" transform="translate(196.31 373.99) rotate(180)"/><rect class="cls-12" x="94.98" y="181.71" width="1.12" height="10.57" rx="0.37" transform="translate(191.09 373.99) rotate(-180)"/><rect class="cls-12" x="92.37" y="181.71" width="1.12" height="10.57" rx="0.37" transform="translate(185.87 373.99) rotate(-180)"/><rect class="cls-12" x="89.76" y="181.71" width="1.12" height="10.57" rx="0.37" transform="translate(180.64 373.99) rotate(-180)"/><rect class="cls-12" x="87.15" y="181.71" width="1.12" height="10.57" rx="0.37" transform="translate(175.42 373.99) rotate(-180)"/><rect class="cls-12" x="84.54" y="181.71" width="1.12" height="10.57" rx="0.37" transform="translate(170.2 373.99) rotate(-180)"/><rect class="cls-12" x="81.93" y="181.71" width="1.12" height="10.57" rx="0.37" transform="translate(164.98 373.99) rotate(-180)"/><rect class="cls-12" x="79.32" y="181.71" width="1.12" height="10.57" rx="0.37" transform="translate(159.76 373.99) rotate(-180)"/><rect class="cls-12" x="76.71" y="181.71" width="1.12" height="10.57" rx="0.37" transform="translate(154.53 373.99) rotate(-180)"/><polygon class="cls-13" points="94.34 188.6 94.34 185.39 95.2 185.39 96.28 187.79 97.35 185.39 98.17 185.39 98.17 188.6 97.46 188.6 97.46 186.74 96.65 188.6 95.9 188.6 95.07 186.75 95.07 188.6 94.34 188.6"/><path class="cls-13" d="M99.31,188.6h-.83l1.43-3.21h1l1.43,3.21h-.82l-.28-.64H99.58Zm1.69-1.24-.59-1.36-.57,1.36Z"/><polygon class="cls-13" points="102.69 188.6 102.69 185.39 105.76 185.39 105.76 186.03 103.43 186.03 103.43 186.67 105.43 186.67 105.43 187.3 103.43 187.3 103.43 187.96 105.77 187.96 105.77 188.6 102.69 188.6"/><path class="cls-13" d="M106.36,188.6v-3.21h2.57a.49.49,0,0,1,.54.54V187c0,.25-.22.47-.65.47h-.07l.75,1.12h-.83l-.71-1.1h-.85v1.1Zm.75-1.73h1.62V186h-1.62Z"/><path class="cls-13" d="M110.82,188.61h-.25a.44.44,0,0,1-.49-.48v-.42h.74V188h1.59v-.65h-1.82a.47.47,0,0,1-.5-.47v-1a.5.5,0,0,1,.5-.5h2.08a.48.48,0,0,1,.48.52v.38h-.74V186h-1.59v.63h1.82a.5.5,0,0,1,.51.52v.91a.46.46,0,0,1-.5.51Z"/><polygon class="cls-13" points="113.86 188.61 113.86 185.39 114.63 185.39 114.63 186.68 116.08 185.39 117.11 185.39 115.38 186.88 117.17 188.61 116.1 188.61 114.63 187.14 114.63 188.61 113.86 188.61"/><rect class="cls-14" x="84.36" y="183.35" width="6.91" height="7.29" rx="0.83"/><polygon class="cls-6" points="88.92 186.81 90.28 185.1 90.28 185.09 88.31 186.04 87.82 183.91 87.81 183.91 87.33 186.04 85.35 185.09 85.35 185.1 86.71 186.81 84.74 187.76 84.75 187.76 86.93 187.76 86.44 189.9 86.45 189.9 87.81 188.19 89.18 189.9 89.19 189.9 88.7 187.76 90.89 187.76 90.89 187.76 88.92 186.81"/><path class="cls-15" d="M74.36,177.81v-13.6a1.56,1.56,0,0,1,1.57-1.56H125.6a1.56,1.56,0,0,1,1.57,1.56v13.6Z"/><rect class="cls-16" x="123.7" y="164.94" width="1.12" height="10.57" rx="0.37" transform="translate(248.53 340.46) rotate(-180)"/><rect class="cls-16" x="121.09" y="164.94" width="1.12" height="10.57" rx="0.37" transform="translate(243.3 340.46) rotate(180)"/><rect class="cls-16" x="118.48" y="164.94" width="1.12" height="10.57" rx="0.37" transform="translate(238.08 340.46) rotate(180)"/><rect class="cls-16" x="115.87" y="164.94" width="1.12" height="10.57" rx="0.37" transform="translate(232.86 340.46) rotate(-180)"/><rect class="cls-16" x="113.26" y="164.94" width="1.12" height="10.57" rx="0.37" transform="translate(227.64 340.46) rotate(180)"/><rect class="cls-16" x="110.65" y="164.94" width="1.12" height="10.57" rx="0.37" transform="translate(222.42 340.46) rotate(-180)"/><rect class="cls-16" x="108.04" y="164.94" width="1.12" height="10.57" rx="0.37" transform="translate(217.2 340.46) rotate(-180)"/><rect class="cls-16" x="105.43" y="164.94" width="1.12" height="10.57" rx="0.37" transform="translate(211.97 340.46) rotate(-180)"/><rect class="cls-16" x="102.82" y="164.94" width="1.12" height="10.57" rx="0.37" transform="translate(206.75 340.46) rotate(-180)"/><rect class="cls-16" x="100.21" y="164.94" width="1.12" height="10.57" rx="0.37" transform="translate(201.53 340.46) rotate(-180)"/><rect class="cls-16" x="97.59" y="164.94" width="1.12" height="10.57" rx="0.37" transform="translate(196.31 340.46) rotate(-180)"/><rect class="cls-16" x="94.98" y="164.94" width="1.12" height="10.57" rx="0.37" transform="translate(191.09 340.46) rotate(-180)"/><rect class="cls-16" x="92.37" y="164.94" width="1.12" height="10.57" rx="0.37" transform="translate(185.87 340.46) rotate(180)"/><rect class="cls-16" x="89.76" y="164.94" width="1.12" height="10.57" rx="0.37" transform="translate(180.64 340.46) rotate(-180)"/><rect class="cls-16" x="87.15" y="164.94" width="1.12" height="10.57" rx="0.37" transform="translate(175.42 340.46) rotate(-180)"/><rect class="cls-16" x="84.54" y="164.94" width="1.12" height="10.57" rx="0.37" transform="translate(170.2 340.46) rotate(-180)"/><rect class="cls-16" x="81.93" y="164.94" width="1.12" height="10.57" rx="0.37" transform="translate(164.98 340.46) rotate(-180)"/><rect class="cls-16" x="79.32" y="164.94" width="1.12" height="10.57" rx="0.37" transform="translate(159.76 340.46) rotate(180)"/><rect class="cls-16" x="76.71" y="164.94" width="1.12" height="10.57" rx="0.37" transform="translate(154.53 340.46) rotate(-180)"/><path class="cls-17" d="M129.33,194.58V181a1.56,1.56,0,0,1,1.56-1.56h49.68a1.56,1.56,0,0,1,1.56,1.56v13.6Z"/><rect class="cls-18" x="178.67" y="181.71" width="1.12" height="10.57" rx="0.37" transform="translate(358.46 374) rotate(180)"/><rect class="cls-18" x="176.06" y="181.71" width="1.12" height="10.57" rx="0.37" transform="translate(353.23 374) rotate(180)"/><rect class="cls-18" x="173.45" y="181.71" width="1.12" height="10.57" rx="0.37" transform="translate(348.01 374) rotate(180)"/><rect class="cls-18" x="170.84" y="181.71" width="1.12" height="10.57" rx="0.37" transform="translate(342.79 374) rotate(180)"/><rect class="cls-18" x="168.22" y="181.71" width="1.12" height="10.57" rx="0.37" transform="translate(337.57 374) rotate(180)"/><rect class="cls-18" x="165.61" y="181.71" width="1.12" height="10.57" rx="0.37" transform="translate(332.35 374) rotate(-180)"/><rect class="cls-18" x="163" y="181.71" width="1.12" height="10.57" rx="0.37" transform="translate(327.13 374) rotate(180)"/><rect class="cls-18" x="160.39" y="181.71" width="1.12" height="10.57" rx="0.37" transform="translate(321.9 374) rotate(180)"/><rect class="cls-18" x="157.78" y="181.71" width="1.12" height="10.57" rx="0.37" transform="translate(316.68 374) rotate(180)"/><rect class="cls-18" x="155.17" y="181.71" width="1.12" height="10.57" rx="0.37" transform="translate(311.46 374) rotate(-180)"/><rect class="cls-18" x="152.56" y="181.71" width="1.12" height="10.57" rx="0.37" transform="translate(306.24 374) rotate(180)"/><rect class="cls-18" x="149.95" y="181.71" width="1.12" height="10.57" rx="0.37" transform="translate(301.02 374) rotate(180)"/><rect class="cls-18" x="147.34" y="181.71" width="1.12" height="10.57" rx="0.37" transform="translate(295.79 374) rotate(180)"/><rect class="cls-18" x="144.73" y="181.71" width="1.12" height="10.57" rx="0.37" transform="translate(290.57 374) rotate(180)"/><rect class="cls-18" x="142.12" y="181.71" width="1.12" height="10.57" rx="0.37" transform="translate(285.35 374) rotate(-180)"/><rect class="cls-18" x="139.5" y="181.71" width="1.12" height="10.57" rx="0.37" transform="translate(280.13 374) rotate(180)"/><rect class="cls-18" x="136.89" y="181.71" width="1.12" height="10.57" rx="0.37" transform="translate(274.91 374) rotate(180)"/><rect class="cls-18" x="134.28" y="181.71" width="1.12" height="10.57" rx="0.37" transform="translate(269.69 374) rotate(180)"/><rect class="cls-18" x="131.67" y="181.71" width="1.12" height="10.57" rx="0.37" transform="translate(264.46 374) rotate(-180)"/><path class="cls-14" d="M210.48,209.5H34.66a9.9,9.9,0,0,1-8.93-5.63l-8.38-17.6H62a6.56,6.56,0,0,1,4.71,2l6.08,6.28H177.24l14.11-8.77a7.73,7.73,0,0,1,4.05-1.15h28.66l-16.38,17.76c-.2,3.08.58,5.54,2.8,7.11"/><rect class="cls-19" x="47.79" y="170.23" width="9.65" height="8.16" transform="translate(105.23 348.61) rotate(180)"/><path class="cls-20" d="M26.38,186.27v-7.6a1.25,1.25,0,0,1,1.26-1.26H58.26a1.26,1.26,0,0,1,1.27,1.26v7.6"/><path class="cls-20" d="M49.26,168H59.53a0,0,0,0,1,0,0v2.22a0,0,0,0,1,0,0H47.79a0,0,0,0,1,0,0v-.74A1.47,1.47,0,0,1,49.26,168Z" transform="translate(107.32 338.24) rotate(180)"/><polygon class="cls-14" points="33.97 173.79 45.04 173.79 45.04 164.21 36.57 164.21 33.97 173.79"/><polygon class="cls-6" points="39.2 168.75 37.67 166.84 37.68 166.83 39.88 167.9 40.43 165.51 40.43 165.51 40.98 167.9 43.18 166.83 43.19 166.84 41.66 168.75 43.87 169.81 43.87 169.82 41.42 169.82 41.96 172.21 41.96 172.21 40.43 170.3 38.91 172.21 38.9 172.21 39.44 169.82 36.99 169.82 36.99 169.81 39.2 168.75"/><polyline class="cls-21" points="323.1 55.78 242.75 55.78 242.75 338.35 324.06 338.35"/><line class="cls-21" x1="324.06" y1="192.28" x2="242.75" y2="192.28"/><rect class="cls-1" x="843.75" y="46.56" width="75.31" height="4.91"/><path class="cls-2" d="M940.35,39.64l-4.08-8.79a1.38,1.38,0,0,0-1.26-.8H920.44a1.38,1.38,0,0,0-1.38,1.39V53.11h7.25c.12-5,1.75-6.22,5.58-6.22s5.41,1.24,5.54,6.22h1.67a1.38,1.38,0,0,0,1.38-1.39V40.22A1.29,1.29,0,0,0,940.35,39.64Z"/><path class="cls-3" d="M916.5,46.56V28.34a2.09,2.09,0,0,0-2.09-2.09H847.83a2.1,2.1,0,0,0-2.09,2.09V46.56Z"/><rect class="cls-4" x="848.88" y="29.32" width="1.5" height="14.17" rx="0.53"/><rect class="cls-4" x="852.38" y="29.32" width="1.5" height="14.17" rx="0.53"/><rect class="cls-4" x="855.88" y="29.32" width="1.5" height="14.17" rx="0.53"/><rect class="cls-4" x="859.38" y="29.32" width="1.5" height="14.17" rx="0.53"/><path class="cls-4" d="M863.4,29.32h.45a.52.52,0,0,1,.52.52V43a.53.53,0,0,1-.53.53h-.45a.53.53,0,0,1-.53-.53V29.85a.53.53,0,0,1,.53-.53Z"/><rect class="cls-4" x="866.37" y="29.32" width="1.5" height="14.17" rx="0.53"/><rect class="cls-4" x="869.87" y="29.32" width="1.5" height="14.17" rx="0.53"/><rect class="cls-4" x="873.37" y="29.32" width="1.5" height="14.17" rx="0.53"/><rect class="cls-4" x="876.87" y="29.32" width="1.5" height="14.17" rx="0.53"/><rect class="cls-4" x="880.37" y="29.32" width="1.5" height="14.17" rx="0.53"/><rect class="cls-4" x="883.87" y="29.32" width="1.5" height="14.17" rx="0.53"/><path class="cls-4" d="M887.89,29.32h.45a.53.53,0,0,1,.53.53V43a.53.53,0,0,1-.53.53h-.45a.52.52,0,0,1-.52-.52V29.85A.53.53,0,0,1,887.89,29.32Z"/><rect class="cls-4" x="890.87" y="29.32" width="1.5" height="14.17" rx="0.53"/><rect class="cls-4" x="894.37" y="29.32" width="1.5" height="14.17" rx="0.53"/><rect class="cls-4" x="897.86" y="29.32" width="1.5" height="14.17" rx="0.53"/><rect class="cls-4" x="901.36" y="29.32" width="1.5" height="14.17" rx="0.53"/><rect class="cls-4" x="904.86" y="29.32" width="1.5" height="14.17" rx="0.53"/><rect class="cls-4" x="908.36" y="29.32" width="1.5" height="14.17" rx="0.53"/><rect class="cls-4" x="911.86" y="29.32" width="1.5" height="14.17" rx="0.53"/><polygon class="cls-5" points="871.39 38.56 871.39 34.26 872.54 34.26 873.99 37.47 875.42 34.26 876.52 34.26 876.52 38.56 875.57 38.56 875.57 36.06 874.48 38.56 873.47 38.56 872.37 36.07 872.37 38.56 871.39 38.56"/><path class="cls-5" d="M878.05,38.56h-1.11l1.91-4.31h1.37l1.92,4.31H881l-.38-.86h-2.24Zm2.27-1.67-.79-1.82-.78,1.82Z"/><polygon class="cls-5" points="882.58 38.56 882.58 34.26 886.69 34.26 886.69 35.11 883.57 35.11 883.57 35.97 886.25 35.97 886.25 36.81 883.57 36.81 883.57 37.7 886.7 37.7 886.7 38.56 882.58 38.56"/><path class="cls-5" d="M887.5,38.56V34.25h3.44a.66.66,0,0,1,.72.73v1.44c0,.33-.29.64-.86.64h-.1l1,1.5h-1.1l-1-1.47h-1.14v1.47Zm1-2.33h2.16V35.12h-2.16Z"/><path class="cls-5" d="M893.48,38.56h-.35a.58.58,0,0,1-.65-.63v-.56h1v.33h2.12v-.88h-2.44a.62.62,0,0,1-.67-.62V34.92a.66.66,0,0,1,.68-.66H896a.63.63,0,0,1,.63.68v.52h-1v-.34h-2.12V36h2.43a.65.65,0,0,1,.68.69v1.23a.6.6,0,0,1-.66.67Z"/><polygon class="cls-5" points="897.55 38.56 897.55 34.26 898.57 34.26 898.57 35.98 900.52 34.26 901.9 34.26 899.58 36.26 901.98 38.56 900.55 38.56 898.57 36.6 898.57 38.56 897.55 38.56"/><path class="cls-2" d="M859.12,31.52h7a1.12,1.12,0,0,1,1.12,1.12v7.54a1.11,1.11,0,0,1-1.11,1.11h-7A1.11,1.11,0,0,1,858,40.18V32.63A1.11,1.11,0,0,1,859.12,31.52Z"/><polygon class="cls-6" points="864.12 36.15 865.95 33.86 865.94 33.85 863.3 35.13 862.65 32.27 862.64 32.27 861.99 35.13 859.35 33.85 859.34 33.86 861.17 36.15 858.52 37.42 858.53 37.43 861.46 37.43 860.81 40.29 860.82 40.3 862.64 38 864.47 40.3 864.48 40.29 863.83 37.43 866.76 37.43 866.76 37.42 864.12 36.15"/><rect class="cls-7" x="923.56" y="32.29" width="3.67" height="3.87" rx="0.44"/><path class="cls-8" d="M858.6,52.5a4.39,4.39,0,1,1-4.39-4.38,4.39,4.39,0,0,1,4.39,4.38"/><path class="cls-9" d="M856.69,52.5A2.48,2.48,0,1,1,854.21,50a2.48,2.48,0,0,1,2.48,2.47"/><path class="cls-8" d="M868.65,52.5a4.39,4.39,0,1,1-4.38-4.38,4.38,4.38,0,0,1,4.38,4.38"/><path class="cls-9" d="M866.74,52.5A2.48,2.48,0,1,1,864.27,50a2.48,2.48,0,0,1,2.47,2.47"/><path class="cls-8" d="M905.26,52.5a4.39,4.39,0,1,1-4.39-4.38,4.38,4.38,0,0,1,4.39,4.38"/><path class="cls-9" d="M903.35,52.5A2.48,2.48,0,1,1,900.87,50a2.48,2.48,0,0,1,2.48,2.47"/><path class="cls-8" d="M915.32,52.5a4.39,4.39,0,1,1-4.39-4.38,4.39,4.39,0,0,1,4.39,4.38"/><path class="cls-9" d="M913.4,52.5A2.47,2.47,0,1,1,910.93,50a2.47,2.47,0,0,1,2.47,2.47"/><path class="cls-8" d="M936.25,52.5a4.39,4.39,0,1,1-4.38-4.38,4.38,4.38,0,0,1,4.38,4.38"/><path class="cls-9" d="M934.34,52.5A2.48,2.48,0,1,0,931.87,55a2.47,2.47,0,0,0,2.47-2.48"/><path class="cls-9" d="M873,48.43h6.39a2.14,2.14,0,0,1,2.14,2.14v1.82a2.14,2.14,0,0,1-2.14,2.14H873a2.13,2.13,0,0,1-2.13-2.13V50.57A2.14,2.14,0,0,1,873,48.43Z"/><path class="cls-7" d="M937.65,41.88h-8a.53.53,0,0,1-.53-.53V32.82a.53.53,0,0,1,.53-.53h4.74a.52.52,0,0,1,.47.3l3.25,6.89a.59.59,0,0,1,0,.23v1.64A.52.52,0,0,1,937.65,41.88Z"/><rect class="cls-1" x="843.75" y="185.53" width="75.31" height="4.91"/><path class="cls-2" d="M940.35,178.6l-4.08-8.79A1.38,1.38,0,0,0,935,169H920.44a1.38,1.38,0,0,0-1.38,1.39v21.67h7.25c.12-4.95,1.75-6.22,5.58-6.22s5.41,1.24,5.54,6.22h1.67a1.38,1.38,0,0,0,1.38-1.38V179.18A1.29,1.29,0,0,0,940.35,178.6Z"/><path class="cls-3" d="M916.5,185.53V167.3a2.09,2.09,0,0,0-2.09-2.09H847.83a2.1,2.1,0,0,0-2.09,2.09v18.23Z"/><rect class="cls-4" x="848.88" y="168.28" width="1.5" height="14.17" rx="0.53"/><rect class="cls-4" x="852.38" y="168.28" width="1.5" height="14.17" rx="0.53"/><rect class="cls-4" x="855.88" y="168.28" width="1.5" height="14.17" rx="0.53"/><rect class="cls-4" x="859.38" y="168.28" width="1.5" height="14.17" rx="0.53"/><path class="cls-4" d="M863.4,168.28h.45a.52.52,0,0,1,.52.52v13.12a.53.53,0,0,1-.53.53h-.45a.53.53,0,0,1-.53-.53V168.81A.53.53,0,0,1,863.4,168.28Z"/><rect class="cls-4" x="866.37" y="168.28" width="1.5" height="14.17" rx="0.53"/><rect class="cls-4" x="869.87" y="168.28" width="1.5" height="14.17" rx="0.53"/><rect class="cls-4" x="873.37" y="168.28" width="1.5" height="14.17" rx="0.53"/><rect class="cls-4" x="876.87" y="168.28" width="1.5" height="14.17" rx="0.53"/><rect class="cls-4" x="880.37" y="168.28" width="1.5" height="14.17" rx="0.53"/><rect class="cls-4" x="883.87" y="168.28" width="1.5" height="14.17" rx="0.53"/><path class="cls-4" d="M887.89,168.28h.45a.53.53,0,0,1,.53.53v13.12a.53.53,0,0,1-.53.53h-.45a.52.52,0,0,1-.52-.52V168.81A.53.53,0,0,1,887.89,168.28Z"/><rect class="cls-4" x="890.87" y="168.28" width="1.5" height="14.17" rx="0.53"/><rect class="cls-4" x="894.37" y="168.28" width="1.5" height="14.17" rx="0.53"/><rect class="cls-4" x="897.86" y="168.28" width="1.5" height="14.17" rx="0.53"/><rect class="cls-4" x="901.36" y="168.28" width="1.5" height="14.17" rx="0.53"/><rect class="cls-4" x="904.86" y="168.28" width="1.5" height="14.17" rx="0.53"/><rect class="cls-4" x="908.36" y="168.28" width="1.5" height="14.17" rx="0.53"/><rect class="cls-4" x="911.86" y="168.28" width="1.5" height="14.17" rx="0.53"/><polygon class="cls-5" points="871.39 177.52 871.39 173.22 872.54 173.22 873.99 176.43 875.42 173.22 876.52 173.22 876.52 177.52 875.57 177.52 875.57 175.02 874.48 177.52 873.47 177.52 872.37 175.03 872.37 177.52 871.39 177.52"/><path class="cls-5" d="M878.05,177.52h-1.11l1.91-4.31h1.37l1.92,4.31H881l-.38-.86h-2.24Zm2.27-1.67-.79-1.82-.78,1.82Z"/><polygon class="cls-5" points="882.58 177.52 882.58 173.22 886.69 173.22 886.69 174.07 883.57 174.07 883.57 174.93 886.25 174.93 886.25 175.77 883.57 175.77 883.57 176.66 886.7 176.66 886.7 177.52 882.58 177.52"/><path class="cls-5" d="M887.5,177.52v-4.31h3.44a.66.66,0,0,1,.72.73v1.44c0,.34-.29.64-.86.64h-.1l1,1.5h-1.1l-1-1.47h-1.14v1.47Zm1-2.33h2.16v-1.11h-2.16Z"/><path class="cls-5" d="M893.48,177.52h-.35a.58.58,0,0,1-.65-.63v-.56h1v.33h2.12v-.88h-2.44a.62.62,0,0,1-.67-.62v-1.28a.66.66,0,0,1,.68-.66H896a.63.63,0,0,1,.63.69v.51h-1v-.34h-2.12v.85h2.43a.65.65,0,0,1,.68.69v1.23a.6.6,0,0,1-.66.67Z"/><polygon class="cls-5" points="897.55 177.52 897.55 173.22 898.57 173.22 898.57 174.94 900.52 173.22 901.9 173.22 899.58 175.22 901.98 177.52 900.55 177.52 898.57 175.56 898.57 177.52 897.55 177.52"/><path class="cls-2" d="M859.12,170.48h7a1.12,1.12,0,0,1,1.12,1.12v7.54a1.11,1.11,0,0,1-1.11,1.11h-7a1.11,1.11,0,0,1-1.11-1.11v-7.54A1.11,1.11,0,0,1,859.12,170.48Z"/><polygon class="cls-6" points="864.12 175.11 865.95 172.82 865.94 172.81 863.3 174.09 862.65 171.23 862.64 171.23 861.99 174.09 859.35 172.81 859.34 172.82 861.17 175.11 858.52 176.39 858.53 176.39 861.46 176.39 860.81 179.25 860.82 179.26 862.64 176.97 864.47 179.26 864.48 179.25 863.83 176.39 866.76 176.39 866.76 176.39 864.12 175.11"/><rect class="cls-7" x="923.56" y="171.25" width="3.67" height="3.87" rx="0.44"/><path class="cls-8" d="M858.6,191.47a4.39,4.39,0,1,1-4.39-4.39,4.39,4.39,0,0,1,4.39,4.39"/><path class="cls-9" d="M856.69,191.47a2.48,2.48,0,1,1-2.48-2.48,2.48,2.48,0,0,1,2.48,2.48"/><path class="cls-8" d="M868.65,191.47a4.39,4.39,0,1,1-4.38-4.39,4.38,4.38,0,0,1,4.38,4.39"/><path class="cls-9" d="M866.74,191.47a2.48,2.48,0,1,1-2.47-2.48,2.48,2.48,0,0,1,2.47,2.48"/><path class="cls-8" d="M905.26,191.47a4.39,4.39,0,1,1-4.39-4.39,4.38,4.38,0,0,1,4.39,4.39"/><path class="cls-9" d="M903.35,191.47a2.48,2.48,0,1,1-2.48-2.48,2.48,2.48,0,0,1,2.48,2.48"/><path class="cls-8" d="M915.32,191.47a4.39,4.39,0,1,1-4.39-4.39,4.39,4.39,0,0,1,4.39,4.39"/><path class="cls-9" d="M913.4,191.47a2.47,2.47,0,1,1-2.47-2.48,2.47,2.47,0,0,1,2.47,2.48"/><path class="cls-8" d="M936.25,191.47a4.39,4.39,0,1,1-4.38-4.39,4.38,4.38,0,0,1,4.38,4.39"/><path class="cls-9" d="M934.34,191.47a2.48,2.48,0,1,1-2.47-2.48,2.47,2.47,0,0,1,2.47,2.48"/><path class="cls-9" d="M873,187.39h6.39a2.14,2.14,0,0,1,2.14,2.14v1.82a2.14,2.14,0,0,1-2.14,2.14H873a2.13,2.13,0,0,1-2.13-2.13v-1.82a2.14,2.14,0,0,1,2.14-2.14Z"/><path class="cls-7" d="M937.65,180.84h-8a.53.53,0,0,1-.53-.52v-8.54a.53.53,0,0,1,.53-.53h4.74a.52.52,0,0,1,.47.3l3.25,6.9a.54.54,0,0,1,0,.22v1.65A.52.52,0,0,1,937.65,180.84Z"/><rect class="cls-1" x="843.75" y="330.98" width="75.31" height="4.91"/><path class="cls-2" d="M940.35,324.05l-4.08-8.78a1.39,1.39,0,0,0-1.26-.81H920.44a1.38,1.38,0,0,0-1.38,1.39v21.67h7.25c.12-4.95,1.75-6.22,5.58-6.22s5.41,1.24,5.54,6.22h1.67a1.38,1.38,0,0,0,1.38-1.38v-11.5A1.31,1.31,0,0,0,940.35,324.05Z"/><path class="cls-3" d="M916.5,331V312.76a2.09,2.09,0,0,0-2.09-2.1H847.83a2.1,2.1,0,0,0-2.09,2.1V331Z"/><rect class="cls-4" x="848.88" y="313.73" width="1.5" height="14.17" rx="0.53"/><rect class="cls-4" x="852.38" y="313.73" width="1.5" height="14.17" rx="0.53"/><rect class="cls-4" x="855.88" y="313.73" width="1.5" height="14.17" rx="0.53"/><rect class="cls-4" x="859.38" y="313.73" width="1.5" height="14.17" rx="0.53"/><path class="cls-4" d="M863.4,313.73h.45a.52.52,0,0,1,.52.52v13.12a.53.53,0,0,1-.53.53h-.45a.53.53,0,0,1-.53-.53V314.26a.53.53,0,0,1,.53-.53Z"/><rect class="cls-4" x="866.37" y="313.73" width="1.5" height="14.17" rx="0.53"/><rect class="cls-4" x="869.87" y="313.73" width="1.5" height="14.17" rx="0.53"/><rect class="cls-4" x="873.37" y="313.73" width="1.5" height="14.17" rx="0.53"/><rect class="cls-4" x="876.87" y="313.73" width="1.5" height="14.17" rx="0.53"/><rect class="cls-4" x="880.37" y="313.73" width="1.5" height="14.17" rx="0.53"/><rect class="cls-4" x="883.87" y="313.73" width="1.5" height="14.17" rx="0.53"/><path class="cls-4" d="M887.89,313.73h.45a.53.53,0,0,1,.53.53v13.12a.53.53,0,0,1-.53.53h-.45a.52.52,0,0,1-.52-.52V314.26a.53.53,0,0,1,.53-.53Z"/><rect class="cls-4" x="890.87" y="313.73" width="1.5" height="14.17" rx="0.53"/><rect class="cls-4" x="894.37" y="313.73" width="1.5" height="14.17" rx="0.53"/><rect class="cls-4" x="897.86" y="313.73" width="1.5" height="14.17" rx="0.53"/><rect class="cls-4" x="901.36" y="313.73" width="1.5" height="14.17" rx="0.53"/><rect class="cls-4" x="904.86" y="313.73" width="1.5" height="14.17" rx="0.53"/><rect class="cls-4" x="908.36" y="313.73" width="1.5" height="14.17" rx="0.53"/><rect class="cls-4" x="911.86" y="313.73" width="1.5" height="14.17" rx="0.53"/><polygon class="cls-5" points="871.39 322.97 871.39 318.67 872.54 318.67 873.99 321.88 875.42 318.67 876.52 318.67 876.52 322.97 875.57 322.97 875.57 320.47 874.48 322.97 873.47 322.97 872.37 320.48 872.37 322.97 871.39 322.97"/><path class="cls-5" d="M878.05,323h-1.11l1.91-4.3h1.37l1.92,4.3H881l-.38-.86h-2.24Zm2.27-1.66-.79-1.83-.78,1.83Z"/><polygon class="cls-5" points="882.58 322.97 882.58 318.67 886.69 318.67 886.69 319.53 883.57 319.53 883.57 320.38 886.25 320.38 886.25 321.22 883.57 321.22 883.57 322.11 886.7 322.11 886.7 322.97 882.58 322.97"/><path class="cls-5" d="M887.5,323v-4.3h3.44a.65.65,0,0,1,.72.72v1.45c0,.33-.29.63-.86.63h-.1l1,1.5h-1.1l-1-1.47h-1.14V323Zm1-2.33h2.16v-1.11h-2.16Z"/><path class="cls-5" d="M893.48,323h-.35a.59.59,0,0,1-.65-.64v-.56h1v.33h2.12v-.88h-2.44a.62.62,0,0,1-.67-.62v-1.28a.66.66,0,0,1,.68-.66H896a.63.63,0,0,1,.63.69v.51h-1v-.34h-2.12v.85h2.43a.65.65,0,0,1,.68.69v1.23a.61.61,0,0,1-.66.68Z"/><polygon class="cls-5" points="897.55 322.98 897.55 318.67 898.57 318.67 898.57 320.39 900.52 318.67 901.9 318.67 899.58 320.67 901.98 322.98 900.55 322.98 898.57 321.02 898.57 322.98 897.55 322.98"/><rect class="cls-2" x="858.01" y="315.93" width="9.26" height="9.77" rx="1.11"/><polygon class="cls-6" points="864.12 320.57 865.95 318.27 865.94 318.27 863.3 319.54 862.65 316.68 862.64 316.68 861.99 319.54 859.35 318.27 859.34 318.27 861.17 320.57 858.52 321.84 858.53 321.85 861.46 321.85 860.81 324.7 860.82 324.71 862.64 322.42 864.47 324.71 864.48 324.7 863.83 321.85 866.76 321.85 866.76 321.84 864.12 320.57"/><rect class="cls-7" x="923.56" y="316.71" width="3.67" height="3.87" rx="0.44"/><path class="cls-8" d="M858.6,336.92a4.39,4.39,0,1,1-4.39-4.39,4.39,4.39,0,0,1,4.39,4.39"/><path class="cls-9" d="M856.69,336.92a2.48,2.48,0,1,1-2.48-2.48,2.48,2.48,0,0,1,2.48,2.48"/><path class="cls-8" d="M868.65,336.92a4.39,4.39,0,1,1-4.38-4.39,4.38,4.38,0,0,1,4.38,4.39"/><path class="cls-9" d="M866.74,336.92a2.48,2.48,0,1,1-2.47-2.48,2.48,2.48,0,0,1,2.47,2.48"/><path class="cls-8" d="M905.26,336.92a4.39,4.39,0,1,1-4.39-4.39,4.38,4.38,0,0,1,4.39,4.39"/><path class="cls-9" d="M903.35,336.92a2.48,2.48,0,1,1-2.48-2.48,2.48,2.48,0,0,1,2.48,2.48"/><path class="cls-8" d="M915.32,336.92a4.39,4.39,0,1,1-4.39-4.39,4.39,4.39,0,0,1,4.39,4.39"/><path class="cls-9" d="M913.4,336.92a2.47,2.47,0,1,1-2.47-2.48,2.47,2.47,0,0,1,2.47,2.48"/><path class="cls-8" d="M936.25,336.92a4.39,4.39,0,1,1-4.38-4.39,4.38,4.38,0,0,1,4.38,4.39"/><path class="cls-9" d="M934.34,336.92a2.48,2.48,0,1,1-2.47-2.48,2.47,2.47,0,0,1,2.47,2.48"/><path class="cls-9" d="M873,332.84h6.39a2.14,2.14,0,0,1,2.14,2.14v1.82a2.14,2.14,0,0,1-2.14,2.14H873a2.13,2.13,0,0,1-2.13-2.13V335a2.14,2.14,0,0,1,2.14-2.14Z"/><path class="cls-7" d="M937.65,326.29h-8a.52.52,0,0,1-.53-.52v-8.54a.52.52,0,0,1,.53-.52h4.74a.5.5,0,0,1,.47.3l3.25,6.89a.54.54,0,0,1,0,.22v1.65A.52.52,0,0,1,937.65,326.29Z"/><polyline class="cls-21" points="815.62 56.89 735.27 56.89 735.27 339.46 816.58 339.46"/><line class="cls-21" x1="816.58" y1="193.4" x2="735.28" y2="193.4"/><line class="cls-21" x1="541.49" y1="193.4" x2="460.19" y2="193.4"/><line class="cls-21" x1="1050.74" y1="192.79" x2="969.44" y2="192.79"/><path class="cls-22" d="M718.46,196.47V146.22a7.09,7.09,0,0,0-5.44-6.6L640.2,118.69a8.87,8.87,0,0,0-4.9,0l-72.82,20.93a7.08,7.08,0,0,0-5.44,6.6v50.25Z"/><rect class="cls-23" x="569.91" y="161.31" width="37.92" height="35.16"/><rect class="cls-24" x="569.91" y="161.31" width="37.92" height="9.54"/><rect class="cls-25" x="567.44" y="156.88" width="42.86" height="4.43"/><rect class="cls-24" x="618.07" y="161.31" width="37.92" height="35.16"/><rect class="cls-25" x="615.6" y="156.88" width="42.86" height="4.43"/><rect class="cls-24" x="666.24" y="161.31" width="37.92" height="35.16"/><rect class="cls-25" x="663.76" y="156.88" width="42.86" height="4.43"/><path class="cls-26" d="M572.79,149.9h-1.72a.67.67,0,0,1-.71-.62V145a.66.66,0,0,1,.71-.62h1.72a.66.66,0,0,1,.7.62v4.3A.66.66,0,0,1,572.79,149.9Z"/><path class="cls-26" d="M580.11,149.9h-1.73a.67.67,0,0,1-.71-.62V142.9a.67.67,0,0,1,.71-.62h1.73a.67.67,0,0,1,.7.62v6.38A.67.67,0,0,1,580.11,149.9Z"/><path class="cls-26" d="M587.42,149.9h-1.73a.66.66,0,0,1-.7-.62v-8.45a.66.66,0,0,1,.7-.62h1.73a.66.66,0,0,1,.7.62v8.45A.66.66,0,0,1,587.42,149.9Z"/><path class="cls-26" d="M594.73,149.9H593a.67.67,0,0,1-.71-.62V138.75a.67.67,0,0,1,.71-.62h1.72a.67.67,0,0,1,.71.62v10.53A.67.67,0,0,1,594.73,149.9Z"/><path class="cls-26" d="M602,149.9h-1.72a.67.67,0,0,1-.71-.62v-12.6a.67.67,0,0,1,.71-.62H602a.67.67,0,0,1,.71.62v12.6A.67.67,0,0,1,602,149.9Z"/><path class="cls-26" d="M609.36,149.9h-1.73a.66.66,0,0,1-.7-.62V134.61a.66.66,0,0,1,.7-.63h1.73a.66.66,0,0,1,.7.63v14.67A.66.66,0,0,1,609.36,149.9Z"/><path class="cls-26" d="M616.67,149.9H615a.67.67,0,0,1-.71-.62V132.53a.67.67,0,0,1,.71-.62h1.72a.67.67,0,0,1,.71.62v16.75A.67.67,0,0,1,616.67,149.9Z"/><path class="cls-26" d="M624,149.9h-1.72a.66.66,0,0,1-.7-.62V130.46a.66.66,0,0,1,.7-.62H624a.66.66,0,0,1,.71.62v18.82A.67.67,0,0,1,624,149.9Z"/><path class="cls-26" d="M631.3,149.9h-1.73a.66.66,0,0,1-.7-.62v-20.9a.66.66,0,0,1,.7-.62h1.73a.67.67,0,0,1,.71.62v20.9A.67.67,0,0,1,631.3,149.9Z"/><path class="cls-26" d="M638.61,149.9h-1.72a.67.67,0,0,1-.71-.62v-23a.67.67,0,0,1,.71-.62h1.72a.67.67,0,0,1,.71.62v23A.67.67,0,0,1,638.61,149.9Z"/><path class="cls-26" d="M645.93,149.9H644.2a.66.66,0,0,1-.7-.62v-20.9a.66.66,0,0,1,.7-.62h1.73a.67.67,0,0,1,.7.62v20.9A.67.67,0,0,1,645.93,149.9Z"/><path class="cls-26" d="M653.24,149.9h-1.73a.67.67,0,0,1-.7-.62V130.46a.66.66,0,0,1,.7-.62h1.73a.67.67,0,0,1,.71.62v18.82A.67.67,0,0,1,653.24,149.9Z"/><path class="cls-26" d="M660.55,149.9h-1.72a.67.67,0,0,1-.71-.62V132.53a.67.67,0,0,1,.71-.62h1.72a.67.67,0,0,1,.71.62v16.75A.67.67,0,0,1,660.55,149.9Z"/><path class="cls-26" d="M667.87,149.9h-1.73a.67.67,0,0,1-.71-.62V134.61a.67.67,0,0,1,.71-.63h1.73a.66.66,0,0,1,.7.63v14.67A.66.66,0,0,1,667.87,149.9Z"/><path class="cls-26" d="M675.18,149.9h-1.72a.67.67,0,0,1-.71-.62v-12.6a.67.67,0,0,1,.71-.62h1.72a.67.67,0,0,1,.71.62v12.6A.67.67,0,0,1,675.18,149.9Z"/><path class="cls-26" d="M682.5,149.9h-1.73a.67.67,0,0,1-.71-.62V138.75a.67.67,0,0,1,.71-.62h1.73a.66.66,0,0,1,.7.62v10.53A.66.66,0,0,1,682.5,149.9Z"/><path class="cls-26" d="M689.81,149.9h-1.73a.66.66,0,0,1-.7-.62v-8.45a.66.66,0,0,1,.7-.62h1.73a.66.66,0,0,1,.7.62v8.45A.66.66,0,0,1,689.81,149.9Z"/><path class="cls-26" d="M697.12,149.9H695.4a.67.67,0,0,1-.71-.62V142.9a.67.67,0,0,1,.71-.62h1.72a.67.67,0,0,1,.71.62v6.38A.67.67,0,0,1,697.12,149.9Z"/><path class="cls-26" d="M704.43,149.9h-1.72a.67.67,0,0,1-.71-.62V145a.67.67,0,0,1,.71-.62h1.72a.67.67,0,0,1,.71.62v4.3A.67.67,0,0,1,704.43,149.9Z"/><line class="cls-27" x1="570.21" y1="166.2" x2="607.83" y2="166.2"/><line class="cls-27" x1="618.08" y1="166.2" x2="655.7" y2="166.2"/><line class="cls-27" x1="618.08" y1="171.35" x2="655.7" y2="171.35"/><line class="cls-27" x1="618.08" y1="176.49" x2="655.7" y2="176.49"/><line class="cls-27" x1="618.08" y1="181.64" x2="655.7" y2="181.64"/><line class="cls-27" x1="618.08" y1="186.79" x2="655.7" y2="186.79"/><line class="cls-27" x1="618.08" y1="191.94" x2="655.7" y2="191.94"/><line class="cls-27" x1="666.24" y1="166.2" x2="703.86" y2="166.2"/><line class="cls-27" x1="666.24" y1="171.35" x2="703.86" y2="171.35"/><line class="cls-27" x1="666.24" y1="176.49" x2="703.86" y2="176.49"/><line class="cls-27" x1="666.24" y1="181.64" x2="703.86" y2="181.64"/><line class="cls-27" x1="666.24" y1="186.79" x2="703.86" y2="186.79"/><line class="cls-27" x1="666.24" y1="191.94" x2="703.86" y2="191.94"/><text class="cls-28" transform="translate(612.25 224.81)">Mae<tspan class="cls-29" x="30.35" y="0">r</tspan><tspan class="cls-30" x="36.24" y="0">sk</tspan><tspan class="cls-31" x="-13.56" y="19.2">W</tspan><tspan x="0.34" y="19.2">a</tspan><tspan class="cls-32" x="8.68" y="19.2">r</tspan><tspan class="cls-30" x="14.33" y="19.2">ehouse</tspan></text><text class="cls-28" transform="translate(1109.91 224.81)"><tspan class="cls-33">C</tspan><tspan x="8.13" y="0">u</tspan><tspan class="cls-34" x="17.14" y="0">s</tspan><tspan class="cls-35" x="24.02" y="0">t</tspan><tspan x="29.38" y="0">omer</tspan><tspan class="cls-31" x="-5.91" y="19.2">W</tspan><tspan x="7.99" y="19.2">a</tspan><tspan class="cls-32" x="16.33" y="19.2">r</tspan><tspan class="cls-30" x="21.98" y="19.2">ehouse</tspan></text><path class="cls-36" d="M1207.25,194.35V131.14a6.39,6.39,0,0,0-4.41-6.08l-59.07-19.29a6.41,6.41,0,0,0-4,0l-59.06,19.29a6.39,6.39,0,0,0-4.41,6.08v63.21Z"/><rect class="cls-27" x="1087.13" y="145.04" width="109.32" height="49.31"/><path class="cls-15" d="M1154.06,194.35v-22a2.53,2.53,0,0,0-2.53-2.53h-19.45a2.53,2.53,0,0,0-2.53,2.53v22Z"/><path class="cls-11" d="M1182.51,194.35v-22a2.52,2.52,0,0,0-2.52-2.53h-19.45a2.53,2.53,0,0,0-2.53,2.53v22Z"/><rect class="cls-18" x="1084.76" y="140.21" width="114.06" height="4.83"/><rect class="cls-37" x="1087.13" y="129.43" width="2.54" height="5.11" rx="0.42"/><rect class="cls-37" x="1093.06" y="127.51" width="2.54" height="7.02" rx="0.42"/><rect class="cls-37" x="1098.99" y="125.6" width="2.54" height="8.93" rx="0.42"/><rect class="cls-37" x="1104.93" y="123.69" width="2.54" height="10.84" rx="0.42"/><rect class="cls-37" x="1110.86" y="121.78" width="2.54" height="12.76" rx="0.42"/><rect class="cls-37" x="1116.79" y="119.87" width="2.54" height="14.67" rx="0.42"/><rect class="cls-37" x="1122.72" y="117.96" width="2.54" height="16.58" rx="0.42"/><rect class="cls-37" x="1128.65" y="116.04" width="2.54" height="18.49" rx="0.42"/><rect class="cls-37" x="1134.59" y="114.13" width="2.54" height="20.4" rx="0.42"/><rect class="cls-37" x="1140.52" y="112.22" width="2.54" height="22.31" rx="0.42"/><rect class="cls-37" x="1146.45" y="114.13" width="2.54" height="20.4" rx="0.42"/><rect class="cls-37" x="1152.38" y="116.04" width="2.54" height="18.49" rx="0.42"/><rect class="cls-37" x="1158.31" y="117.96" width="2.54" height="16.58" rx="0.42"/><rect class="cls-37" x="1164.24" y="119.87" width="2.54" height="14.67" rx="0.42"/><rect class="cls-37" x="1170.18" y="121.78" width="2.54" height="12.76" rx="0.42"/><rect class="cls-37" x="1176.11" y="123.69" width="2.54" height="10.84" rx="0.42"/><rect class="cls-37" x="1182.04" y="125.6" width="2.54" height="8.93" rx="0.42"/><rect class="cls-37" x="1187.97" y="127.51" width="2.54" height="7.02" rx="0.42"/><rect class="cls-37" x="1193.9" y="129.43" width="2.54" height="5.11" rx="0.42"/></svg>