<?xml version="1.0" encoding="utf-8"?>
<!-- Generator: Adobe Illustrator 24.3.0, SVG Export Plug-In . SVG Version: 6.00 Build 0)  -->
<svg version="1.1" id="Layer_1" xmlns="http://www.w3.org/2000/svg" xmlns:xlink="http://www.w3.org/1999/xlink" x="0px" y="0px"
	 viewBox="0 0 40 40" style="enable-background:new 0 0 40 40;" xml:space="preserve">
<style type="text/css">
	.st0{fill:#00243D;}
	.st1{fill-rule:evenodd;clip-rule:evenodd;}
</style>
<path d="M21.9,16.8v4h-3.2v-4H21.9 M21.9,15.8h-3.2c-0.5,0-0.9,0.4-0.9,0.9V21c0,0.5,0.5,0.9,0.9,0.9h3.2c0.5,0,0.9-0.4,0.9-0.9
	v-4.2C22.8,16.1,22.4,15.7,21.9,15.8z M23.9,33.7L23.4,33l2.2-1.6c0.2-0.2,0.2-0.3,0.2-0.5v-4.9c0-0.7-0.6-1.4-1.4-1.4h-8.2
	c-0.7,0-1.4,0.6-1.4,1.4v4.9c0,0.2,0.1,0.3,0.2,0.4l2.2,1.6l-0.5,0.7L14.4,32c-0.4-0.3-0.5-0.6-0.5-1.1v-4.9c0-1.3,1-2.3,2.3-2.3
	h8.2c1.3,0,2.3,1,2.3,2.3v4.9c0,0.5-0.2,0.8-0.5,1.1L23.9,33.7z"/>
<path d="M22.7,39.1h-4.9c-0.7,0-1.4-0.6-1.4-1.4V27.6h0.9v10.2c0,0.3,0.2,0.5,0.5,0.5h4.9c0.3,0,0.5-0.2,0.5-0.5V27.6h0.9v10.2
	C24.1,38.4,23.5,39.1,22.7,39.1z M33.8,12.6v4h-3.2v-4H33.8 M33.8,11.7h-3.2c-0.5,0-0.9,0.4-0.9,0.8v4.2c0,0.5,0.5,0.9,0.9,0.8h3.2
	c0.5,0,0.9-0.4,0.9-0.8v-4.1C34.7,12.1,34.4,11.7,33.8,11.7z M35.8,29.6l-0.5-0.7l2.2-1.6c0.1-0.1,0.2-0.2,0.2-0.4v-4.9
	c0-0.7-0.6-1.4-1.4-1.4H28c-0.7,0-1.4,0.6-1.4,1.4v4.9c0,0.2,0.1,0.3,0.2,0.4l2.2,1.6l-0.5,0.7l-2.2-1.6c-0.4-0.3-0.5-0.6-0.5-1.1
	v-4.9c0-1.3,1-2.3,2.3-2.3h8.2c1.3,0,2.3,1,2.3,2.3v4.9c0,0.5-0.2,0.8-0.5,1.1L35.8,29.6z"/>
<path d="M34.7,35h-4.9c-0.7,0-1.4-0.6-1.4-1.4V23.5h0.9v10.2c0,0.3,0.2,0.5,0.5,0.5h4.9c0.3,0,0.5-0.2,0.5-0.5V23.5h0.9v10.2
	C36,34.4,35.5,35,34.7,35z"/>
<path d="M31.8,20.1h0.9v5h-0.9V20.1z M6.8,12.5H10v4H6.8V12.5 M10,11.5H6.8c-0.5,0-0.9,0.4-0.9,0.9v4.1c0,0.5,0.4,0.9,0.9,0.9H10
	c0.5,0,0.9-0.4,0.9-0.9v-4.2C10.9,11.9,10.5,11.4,10,11.5z M12,29.4l-0.5-0.7l2.2-1.6c0.1-0.1,0.2-0.2,0.2-0.4v-4.9
	c0-0.7-0.6-1.4-1.4-1.4H4.2c-0.7,0-1.4,0.5-1.4,1.4v4.9c0,0.2,0.1,0.3,0.2,0.4l2.2,1.6l-0.5,0.7l-2.2-1.6C2.1,27.5,2,27,2,26.6v-4.9
	c0-1.3,1-2.3,2.3-2.3h8.2c1.3,0,2.3,1,2.3,2.3v4.9c0,0.5-0.2,0.8-0.5,1.1L12,29.4z"/>
<path d="M10.8,34.8H5.9c-0.7,0-1.4-0.6-1.4-1.4V23.3h0.9v10.2c0,0.3,0.2,0.5,0.5,0.5h4.9c0.3,0,0.5-0.2,0.5-0.5V23.3h0.9v10.2
	C12.2,34.1,11.6,34.8,10.8,34.8z"/>
<path d="M7.9,19.6h0.9v5H7.9V19.6z M26.3,9.6v2.7h-2.1V9.6H26.3 M26.6,8.7h-2.5c-0.4,0-0.7,0.3-0.7,0.6v3.2c0,0.4,0.4,0.7,0.7,0.6
	h2.5c0.4,0,0.7-0.3,0.7-0.6V9.3C27.2,9,26.9,8.7,26.6,8.7z M33.3,5.4v2h-1.5v-2L33.3,5.4 M33.5,4.5h-2.1c-0.3,0-0.5,0.3-0.5,0.5v2.7
	c0,0.3,0.3,0.5,0.5,0.5h2.1c0.3,0,0.5-0.3,0.5-0.5V5C34.2,4.8,33.9,4.5,33.5,4.5z M10.7,5.4v2H9.3v-2L10.7,5.4 M11,4.5H9
	C8.6,4.5,8.4,4.8,8.4,5v2.7c0,0.4,0.3,0.5,0.5,0.5H11c0.3,0,0.5-0.3,0.5-0.5V5C11.6,4.8,11.4,4.5,11,4.5z M21.7,5.4v2h-1.5v-2
	L21.7,5.4 M22.1,4.5H20c-0.4,0-0.6,0.2-0.6,0.5v2.7c0,0.3,0.3,0.5,0.5,0.5h2.2c0.3,0,0.5-0.3,0.5-0.5V5C22.6,4.8,22.4,4.5,22.1,4.5z
	 M16.2,9.6v2.7h-2.1V9.6H16.2 M16.5,8.7H14c-0.4,0-0.7,0.3-0.7,0.6v3.2c0,0.4,0.4,0.7,0.7,0.6h2.5c0.4,0,0.7-0.3,0.7-0.6V9.3
	C17.1,9,16.9,8.7,16.5,8.7z M19.8,23.8h0.9v5h-0.9V23.8z"/>
</svg>
